<svg width="70" height="88" viewBox="0 0 70 88" fill="none" xmlns="http://www.w3.org/2000/svg">
<path fill-rule="evenodd" clip-rule="evenodd" d="M34.9647 1.67085C35.2757 1.67085 35.5487 1.67085 35.8204 1.67085C36.0933 1.67085 36.4044 1.67085 36.6761 1.71021C36.9478 1.71021 37.2588 1.7483 37.5318 1.7483C37.8035 1.78765 38.1145 1.78765 38.3875 1.82574C53.6287 3.37843 65.8381 15.4114 67.7425 30.8202C67.7819 31.0919 67.8212 31.3636 67.8212 31.6734C67.8593 31.9451 67.8593 32.2168 67.8987 32.5278C67.9367 32.7995 67.9367 33.1105 67.9367 33.3822C67.9367 33.6539 67.9761 33.9637 67.9761 34.2354C68.1323 40.4461 67.9761 46.733 67.9761 52.9438C67.9761 70.5261 54.5618 84.9256 37.4924 86.2459C37.2207 86.284 36.9097 86.284 36.6367 86.284C36.365 86.284 36.054 86.3234 35.7823 86.3234C35.5093 86.3234 35.1983 86.3234 34.9266 86.3234C34.6536 86.3234 34.3426 86.3234 34.0709 86.3234C33.7992 86.3234 33.4882 86.3234 33.2152 86.284C32.9435 86.284 32.6325 86.2459 32.3595 86.2459C32.0878 86.2066 31.7768 86.2066 31.5051 86.1685C31.2321 86.1291 30.9605 86.0898 30.6494 86.0898C30.3777 86.0517 30.1048 86.0123 29.7937 85.9743C13.4251 83.4503 1.83775 69.3619 1.83775 52.9819C1.83775 46.7724 1.68159 40.4842 1.83775 34.2747C1.83775 34.003 1.83775 33.692 1.8771 33.4203C1.8771 33.1486 1.91519 32.8388 1.91519 32.5672C1.95455 32.2955 1.95455 32.0238 1.99264 31.7127C2.03199 31.441 2.07135 31.1694 2.07135 30.8583C3.93762 15.838 15.6024 3.88372 30.572 1.9819C30.8437 1.94254 31.1153 1.90445 31.4264 1.90445C31.6994 1.8651 32.0104 1.8651 32.2821 1.82574C32.555 1.78765 32.8661 1.78765 33.1378 1.78765C33.4095 1.78765 33.7205 1.7483 33.9935 1.7483C34.382 1.67085 34.693 1.67085 34.9647 1.67085ZM25.8669 54.2629C26.2948 54.2629 26.6833 54.612 26.6833 55.0399C26.6833 55.4664 26.3329 55.8156 25.8669 55.8156C25.4391 55.8156 25.0506 55.4664 25.0506 55.0399C25.0506 54.612 25.3997 54.2629 25.8669 54.2629ZM55.7285 28.6467L55.6892 37.9222V50.0327C55.6892 62.9569 46.9799 72.6996 34.9647 72.6996C22.9507 72.6996 14.2415 62.9569 14.2415 50.0327V28.4525L21.0845 31.907V48.7136C21.0845 59.3094 26.4116 66.3733 34.9266 66.3733C43.9863 66.3733 48.7687 58.8435 48.7687 48.7136V32.6052L55.7285 28.6467ZM23.5728 18.3226C23.5728 29.5392 23.5728 39.9027 23.5728 51.0801C30.0667 49.9159 30.1822 53.604 30.3384 47.1609C30.5326 39.3975 27.9275 31.1694 34.382 24.8812C33.4095 22.5921 29.2884 20.2625 23.5728 18.3226ZM22.7565 55.3496C25.7108 56.5138 25.0112 59.5811 28.8606 61.9869C33.3714 64.6657 38.3875 64.1605 42.897 60.24C45.8525 57.3682 46.2017 53.8757 46.4353 50.0327C46.4353 43.8219 46.4353 37.6124 46.4353 31.3636C47.2135 30.8977 48.0299 30.4711 48.8068 30.0052C48.8068 26.3958 48.8068 22.7851 48.8068 19.1757C40.448 19.8359 32.9829 26.3171 32.2046 34.3903C31.7768 40.601 32.9042 45.9573 32.244 52.4385C31.6994 54.6514 29.1335 53.5646 27.8106 53.2536C25.2842 52.7889 23.2618 53.6421 22.7565 55.3496ZM34.9647 12.6171C48.5745 12.6171 59.5779 22.8245 59.5779 37.0691V50.9252C59.5779 65.1698 48.6126 77.0085 34.9647 77.0085C21.3561 77.0085 10.3528 65.1698 10.3528 50.9252V37.0691C10.3528 22.8245 21.3561 12.6171 34.9647 12.6171ZM57.5555 68.4694C57.3612 68.3526 57.167 68.2751 56.9334 68.2358C56.7391 68.2358 56.5055 68.3132 56.3113 68.4694C56.2338 68.5075 56.1945 68.5849 56.117 68.6636C56.0396 68.7411 55.9621 68.8185 55.8834 68.9734L55.4556 69.5168L57.2063 70.681L57.7116 70.0602C57.8284 69.9053 57.9439 69.7504 57.9833 69.5942C58.0227 69.4393 58.0607 69.2845 58.0227 69.1676C58.0227 69.0508 57.9439 68.896 57.8665 68.8185C57.7891 68.6636 57.6723 68.5468 57.5555 68.4694ZM61.9494 69.9434C61.9888 69.9434 61.9888 69.9827 61.9888 69.9827C61.9888 69.9827 61.9888 70.0221 61.9888 70.0602C61.9888 70.0995 61.9494 70.1376 61.9494 70.177C61.9101 70.215 61.872 70.2938 61.8326 70.3712C61.7933 70.4486 61.7552 70.4867 61.7158 70.5261C61.6778 70.5655 61.6384 70.6035 61.599 70.6035C61.561 70.6035 61.5216 70.6429 61.5216 70.6429C61.4822 70.6429 61.4441 70.6429 61.4048 70.6429L59.8496 70.2544C59.6553 70.215 59.5004 70.177 59.3443 70.177C59.1894 70.1376 59.0332 70.1376 58.8783 70.177C58.7222 70.215 58.6054 70.2544 58.4886 70.3318C58.3718 70.4093 58.2563 70.5261 58.1395 70.6429L57.7891 71.0695L60.0057 72.5447C60.0438 72.5447 60.0438 72.5828 60.0438 72.5828C60.0438 72.6222 60.0438 72.6222 60.0438 72.6602C60.0438 72.6996 60.0057 72.739 60.0057 72.777C59.9664 72.8164 59.927 72.8938 59.8889 72.9319C59.8496 73.0106 59.8115 73.0487 59.7721 73.0881C59.7328 73.1262 59.6947 73.1655 59.6553 73.1655C59.616 73.1655 59.616 73.2036 59.5779 73.2036C59.5385 73.2036 59.5385 73.2036 59.5004 73.1655L54.718 69.9827C54.6012 69.9053 54.5618 69.8278 54.5618 69.7504C54.5618 69.6717 54.6012 69.5942 54.6392 69.5561L55.4556 68.5468C55.5343 68.43 55.6511 68.3132 55.6892 68.2358C55.7666 68.1583 55.806 68.0809 55.8834 68.0415C56.0777 67.8867 56.2338 67.7699 56.4281 67.6543C56.6223 67.5769 56.8166 67.4982 57.0108 67.4982C57.2063 67.4982 57.4006 67.4982 57.5948 67.5375C57.7891 67.5769 57.9439 67.6924 58.1395 67.8092C58.2943 67.926 58.4505 68.0415 58.5673 68.1977C58.6828 68.3132 58.7615 68.4694 58.7996 68.6243C58.839 68.7792 58.839 68.9353 58.839 69.0902C58.839 69.2451 58.7996 69.4393 58.7222 69.5942C58.839 69.5561 58.9164 69.5168 59.0332 69.4787C59.15 69.4393 59.2668 69.4393 59.3836 69.4393C59.5004 69.4393 59.6553 69.4393 59.7721 69.4787C59.927 69.5168 60.0832 69.5168 60.2381 69.5561L61.7158 69.9053C61.8326 69.9434 61.9101 69.9434 61.9888 69.9827C61.872 69.9434 61.9101 69.9434 61.9494 69.9434ZM58.0227 74.4072C58.0607 74.4465 58.1001 74.4846 58.1395 74.524C58.1775 74.5621 58.1775 74.6014 58.1775 74.6014C58.1775 74.6408 58.1775 74.6408 58.1775 74.6789C58.1775 74.7182 58.1775 74.7182 58.1395 74.7563L56.0002 76.7749C55.9621 76.8143 55.8834 76.8524 55.806 76.8524C55.7285 76.8524 55.6511 76.8143 55.5343 76.7368L51.412 73.0881C51.3345 73.0106 51.2952 72.9319 51.2952 72.8545C51.2952 72.777 51.3345 72.6996 51.3739 72.6602L53.4725 70.6429C53.4725 70.6429 53.5119 70.6035 53.5512 70.6035C53.5893 70.6035 53.5893 70.6035 53.6287 70.6035C53.668 70.6035 53.7061 70.6429 53.7455 70.6429C53.7836 70.681 53.8229 70.681 53.8623 70.7584C53.9004 70.7978 53.9397 70.8371 53.9791 70.8752C54.0172 70.9146 54.0172 70.9527 54.0172 70.9527C54.0172 70.992 54.0172 70.992 54.0172 71.0301C54.0172 71.0695 54.0172 71.0695 53.9791 71.1088L52.2283 72.777L53.668 74.058L55.1445 72.6222C55.1445 72.6222 55.1839 72.5828 55.2232 72.5828C55.2613 72.5828 55.2613 72.5828 55.3007 72.5828C55.34 72.5828 55.3781 72.6222 55.4175 72.6222C55.4556 72.6602 55.4949 72.6602 55.5343 72.6996C55.5724 72.739 55.6117 72.777 55.6511 72.8164C55.6892 72.8545 55.6892 72.8938 55.6892 72.8938C55.6892 72.9319 55.6892 72.9319 55.6892 72.9713C55.6892 73.0106 55.6892 73.0106 55.6511 73.0487L54.1733 74.4846L55.806 75.9599L57.5555 74.2904C57.5555 74.2904 57.5948 74.2523 57.6329 74.2523C57.6723 74.2523 57.6723 74.2523 57.7116 74.2523C57.7497 74.2523 57.7891 74.2904 57.8284 74.2904C57.9439 74.3297 57.9833 74.3691 58.0227 74.4072ZM52.9291 79.0652C52.9291 79.1033 52.9291 79.1427 52.9291 79.1427C52.9291 79.182 52.8898 79.2201 52.8898 79.2201C52.8504 79.2595 52.8123 79.2976 52.773 79.3369C52.7349 79.375 52.6562 79.4144 52.5787 79.4537C52.5013 79.4918 52.4619 79.5312 52.4238 79.5693C52.3845 79.6086 52.3451 79.6086 52.307 79.6467C52.2677 79.6467 52.2283 79.6861 52.2283 79.6861C52.1902 79.6861 52.1902 79.6861 52.1509 79.6861C52.1128 79.6861 52.1128 79.6861 52.0734 79.6861C52.0341 79.6861 52.0341 79.6861 51.996 79.6467L46.8631 76.2709C46.7857 76.2316 46.7463 76.1935 46.7463 76.1541C46.7082 76.1147 46.7082 76.0767 46.7082 76.0373C46.7082 75.9992 46.7463 75.9599 46.7857 75.9205C46.8238 75.8824 46.9025 75.8431 46.9799 75.7656C47.0574 75.7275 47.1348 75.6882 47.1742 75.6488C47.2135 75.6107 47.2516 75.6107 47.291 75.6107C47.3303 75.6107 47.3684 75.6107 47.3684 75.6107C47.4078 75.6107 47.4078 75.6488 47.4459 75.6488L52.0341 78.7542L50.4014 73.747C50.4014 73.7089 50.3621 73.6696 50.3621 73.6696C50.3621 73.6315 50.3621 73.6315 50.4014 73.5921C50.4014 73.554 50.4408 73.5147 50.5182 73.5147C50.5576 73.4753 50.635 73.4372 50.7125 73.3979C50.7899 73.3598 50.8686 73.3204 50.9067 73.2823C50.9461 73.243 50.9841 73.243 51.0235 73.243C51.0629 73.243 51.0629 73.2823 51.1009 73.3204C51.1403 73.3598 51.1403 73.3979 51.1797 73.4753L52.9291 79.0652ZM48.8068 81.5104C48.8068 81.5485 48.8068 81.5485 48.8068 81.5879C48.8068 81.6272 48.8068 81.6272 48.7687 81.6653C48.7294 81.7047 48.69 81.7047 48.6519 81.7428C48.6126 81.7821 48.5351 81.8202 48.4577 81.8202C48.379 81.8596 48.3409 81.8596 48.2635 81.8989C48.2241 81.8989 48.1467 81.937 48.1467 81.937C48.1073 81.937 48.0679 81.937 48.0679 81.937C48.0299 81.937 48.0299 81.8989 48.0299 81.8989L45.3472 76.8143C45.3472 76.7749 45.3472 76.7749 45.3472 76.7368C45.3472 76.6975 45.3853 76.6975 45.3853 76.6581C45.4247 76.62 45.4641 76.62 45.5021 76.5807C45.5415 76.5426 45.6189 76.5032 45.6583 76.5032C45.7357 76.4651 45.8132 76.4651 45.8525 76.4258C45.8906 76.4258 45.93 76.3864 45.9693 76.3864C46.0074 76.3864 46.0468 76.3864 46.0468 76.3864C46.0861 76.3864 46.0861 76.4258 46.0861 76.4258L48.8068 81.5104ZM45.93 82.5972C45.93 82.6353 45.9693 82.714 45.93 82.7521C45.93 82.7914 45.8906 82.8295 45.8906 82.8689C45.8525 82.907 45.8525 82.9463 45.8132 82.9463C45.7751 82.9857 45.7357 82.9857 45.6964 82.9857L45.4247 83.0631C45.3472 83.1012 45.2685 83.1012 45.1911 83.1012C45.1136 83.1012 45.0743 83.1012 44.9968 83.0631C44.9194 83.0238 44.8407 82.9857 44.7632 82.9463C44.6858 82.907 44.6084 82.8295 44.4916 82.714L41.4979 80.0745C41.3417 79.9184 41.1869 79.8029 41.0307 79.6467C40.8758 79.4918 40.7197 79.3369 40.5648 79.182C40.6422 79.375 40.7197 79.6086 40.7971 79.8029C40.8758 80.0352 40.9533 80.2294 41.0307 80.4618L42.1581 83.8388C42.1581 83.8388 42.1581 83.8782 42.1581 83.9163C42.1581 83.9556 42.12 83.9556 42.12 83.9937C42.0806 83.9937 42.0413 84.0331 42.0032 84.0724C41.9638 84.1105 41.8864 84.1105 41.809 84.1499C41.7302 84.188 41.6528 84.188 41.6147 84.188C41.5753 84.188 41.536 84.188 41.4979 84.188C41.4585 84.188 41.4192 84.188 41.4192 84.1499L41.3811 84.1105L39.6697 78.9103C39.6316 78.7935 39.6316 78.7161 39.7091 78.6387C39.7472 78.5599 39.8259 78.5219 39.9033 78.4825L40.2918 78.367C40.3693 78.3276 40.448 78.3276 40.5254 78.3276C40.6029 78.3276 40.6422 78.3276 40.7197 78.367C40.7971 78.367 40.8365 78.4051 40.9139 78.4825C40.9913 78.5219 41.0701 78.5993 41.1475 78.6767L43.4416 80.7335C43.5965 80.8503 43.7133 80.9671 43.8695 81.0839C43.9863 81.1994 44.1412 81.3162 44.258 81.433C44.3748 81.5485 44.4916 81.6653 44.6464 81.7821C44.7632 81.8989 44.88 82.0145 44.9968 82.1312C44.9194 81.8989 44.8407 81.6653 44.7632 81.433C44.6858 81.1994 44.6084 80.9277 44.5296 80.7335L43.5191 77.6674C43.5191 77.6293 43.5191 77.6293 43.5191 77.59C43.5191 77.5519 43.5584 77.5519 43.5584 77.5126C43.5965 77.4732 43.6359 77.4732 43.6752 77.4351C43.7133 77.3957 43.792 77.3957 43.8695 77.3577C43.9469 77.3183 43.9863 77.3183 44.0637 77.3183C44.1031 77.3183 44.1412 77.3183 44.1805 77.3183C44.2186 77.3183 44.258 77.3183 44.258 77.3577L44.2973 77.3957L45.93 82.5972ZM39.0095 82.3636C39.0476 82.714 39.0095 83.0238 38.8927 83.3348C38.814 83.6065 38.6591 83.8782 38.4649 84.0724C38.2707 84.2654 38.0371 84.4596 37.726 84.5765C37.415 84.6933 37.1039 84.7707 36.7154 84.8088C36.365 84.8481 36.054 84.8088 35.7429 84.7313C35.4319 84.6539 35.1983 84.5371 34.9647 84.3822C34.7324 84.2273 34.5762 83.9937 34.4213 83.722C34.3045 83.4503 34.2271 83.1406 34.1877 82.7914L33.916 79.1427C33.916 79.1033 33.916 79.1033 33.916 79.0652C33.916 79.0652 33.9541 79.0259 33.9935 79.0259C34.0316 79.0259 34.0709 78.9878 34.1103 78.9878C34.1484 78.9878 34.2271 78.9484 34.3045 78.9484C34.382 78.9484 34.4594 78.9484 34.4988 78.9484C34.5381 78.9484 34.6156 78.9484 34.6156 78.9484C34.6536 78.9484 34.6536 78.9878 34.693 78.9878C34.693 78.9878 34.7324 79.0259 34.7324 79.0652L35.004 82.5972C35.0434 82.8689 35.0815 83.1012 35.1602 83.2955C35.2376 83.4897 35.3544 83.6446 35.5093 83.8007C35.6655 83.9163 35.8204 84.0331 36.0146 84.0724C36.2089 84.1105 36.4425 84.1499 36.6761 84.1499C36.9097 84.1499 37.1433 84.0724 37.3375 83.9937C37.5318 83.9163 37.6866 83.8007 37.8035 83.6446C37.9203 83.4897 37.9977 83.3348 38.0764 83.1406C38.1145 82.9463 38.1539 82.714 38.1145 82.4423L37.8428 78.871C37.8428 78.8316 37.8428 78.8316 37.8428 78.7935C37.8428 78.7542 37.8809 78.7542 37.9203 78.7542C37.9596 78.7542 37.9977 78.7161 38.0371 78.7161C38.0764 78.7161 38.1539 78.6767 38.2313 78.6767C38.3087 78.6767 38.3875 78.6767 38.4255 78.6767C38.4649 78.6767 38.5423 78.6767 38.5423 78.6767C38.5817 78.6767 38.5817 78.7161 38.6198 78.7161C38.6198 78.7161 38.6591 78.7542 38.6591 78.7935L39.0095 82.3636ZM30.2216 84.3441C30.2216 84.3822 30.2216 84.3822 30.1822 84.4216C30.1822 84.4216 30.1441 84.4596 30.1048 84.4596C30.0667 84.4596 30.0273 84.4596 29.988 84.4596C29.9499 84.4596 29.8712 84.4596 29.7937 84.4216C29.7163 84.4216 29.6388 84.3822 29.5995 84.3822C29.5601 84.3822 29.522 84.3441 29.4827 84.3441C29.4446 84.3441 29.4446 84.3048 29.4052 84.3048C29.4052 84.2654 29.4052 84.2654 29.4052 84.2273L30.572 78.6767C30.572 78.6387 30.572 78.6387 30.6101 78.5993C30.6101 78.5993 30.6494 78.5599 30.6888 78.5599C30.7269 78.5599 30.7662 78.5599 30.8437 78.5599C30.883 78.5599 30.9605 78.5599 31.0379 78.5993C31.1153 78.5993 31.1941 78.6387 31.2321 78.6387C31.2715 78.6387 31.3109 78.6767 31.3489 78.6767C31.3883 78.6767 31.3883 78.7161 31.4264 78.7161C31.4264 78.7542 31.4264 78.7542 31.4264 78.7935L30.2216 84.3441ZM26.9943 78.4051L24.8564 80.8122L26.955 81.5104L26.9943 78.4051ZM27.7726 83.8007C27.7726 83.8782 27.7726 83.9163 27.7332 83.9556C27.7332 83.9937 27.6938 84.0331 27.6558 84.0331C27.6164 84.0331 27.577 84.0331 27.4996 84.0331C27.4222 84.0331 27.3447 83.9937 27.266 83.9556C27.1886 83.9163 27.1111 83.8782 27.0337 83.8782C26.9943 83.8388 26.955 83.8388 26.9169 83.8007C26.8775 83.7614 26.8775 83.7614 26.8775 83.722C26.8775 83.6839 26.8775 83.6839 26.8775 83.6446V82.1312L24.3892 81.2768L23.3786 82.4423C23.3392 82.4804 23.3392 82.4804 23.3011 82.4804C23.2618 82.4804 23.2618 82.5197 23.2224 82.5197C23.1843 82.5197 23.145 82.5197 23.0675 82.5197C23.0282 82.5197 22.9507 82.4804 22.8339 82.4423C22.7565 82.4029 22.679 82.3636 22.6003 82.3636C22.5622 82.3255 22.5229 82.3255 22.4835 82.2861C22.4835 82.2481 22.4835 82.2087 22.4835 82.1706C22.4835 82.1312 22.5229 82.0919 22.6003 82.0145L26.6439 77.5519C26.6833 77.5126 26.6833 77.5126 26.7226 77.4732C26.7607 77.4732 26.8001 77.4732 26.8394 77.4732C26.8775 77.4732 26.9169 77.4732 26.9943 77.5126C27.0718 77.5126 27.1505 77.5519 27.2279 77.59C27.3447 77.6293 27.4222 77.6674 27.4615 77.6674C27.539 77.7068 27.577 77.7068 27.6164 77.7449C27.6558 77.7842 27.6938 77.7842 27.6938 77.8236C27.6938 77.8617 27.6938 77.901 27.6938 77.901L27.7726 83.8007ZM21.1619 81.5879C21.1619 81.6272 21.1238 81.6272 21.1238 81.6272C21.0845 81.6272 21.0845 81.6272 21.0451 81.6272C21.007 81.6272 20.9677 81.5879 20.9283 81.5879C20.8902 81.5485 20.8128 81.5485 20.7341 81.5104C20.6566 81.4711 20.6173 81.433 20.5792 81.3936C20.5398 81.3555 20.5017 81.3162 20.5017 81.3162C20.4624 81.2768 20.4624 81.2768 20.4624 81.2387C20.4624 81.1994 20.4624 81.1994 20.4624 81.1613L21.9782 78.9484L19.4899 77.5126L17.974 79.7254C17.974 79.7635 17.9347 79.7635 17.9347 79.7635C17.8966 79.7635 17.8966 79.7635 17.8572 79.7635C17.8179 79.7635 17.7798 79.7254 17.7404 79.7254C17.701 79.6861 17.6236 79.6861 17.5462 79.6467C17.4687 79.6086 17.4294 79.5693 17.39 79.5312C17.3519 79.4918 17.3126 79.4537 17.2745 79.4537C17.2351 79.4144 17.2351 79.4144 17.2351 79.375C17.2351 79.3369 17.2351 79.3369 17.2351 79.2976L20.5017 74.524C20.5017 74.4846 20.5398 74.4846 20.5398 74.4846C20.5792 74.4846 20.5792 74.4846 20.6173 74.4846C20.6566 74.4846 20.696 74.524 20.7341 74.524C20.7734 74.5621 20.8509 74.5621 20.9283 74.6014C21.007 74.6408 21.0451 74.6789 21.0845 74.7182C21.1238 74.7563 21.1619 74.7957 21.1619 74.7957C21.2013 74.8337 21.2013 74.8337 21.2013 74.8731C21.2013 74.9125 21.2013 74.9125 21.2013 74.9506L19.8403 76.9298L22.3286 78.367L23.6896 76.3864C23.6896 76.3484 23.7277 76.3484 23.7277 76.3484C23.7671 76.3484 23.7671 76.3484 23.8064 76.3484C23.8445 76.3484 23.8839 76.3864 23.9232 76.3864C23.9613 76.4258 24.0388 76.4258 24.1175 76.4651C24.1949 76.5032 24.2343 76.5426 24.2724 76.5807C24.3117 76.62 24.3511 76.6581 24.3511 76.6581C24.3892 76.6975 24.3892 76.6975 24.3892 76.7368C24.3892 76.7749 24.3892 76.7749 24.3511 76.8143L21.1619 81.5879ZM19.335 74.524C19.2956 74.5621 19.2563 74.6014 19.2182 74.6408C19.1788 74.6789 19.1407 74.6789 19.1014 74.7182C19.062 74.7182 19.062 74.7182 19.0239 74.7182C18.9846 74.7182 18.9846 74.7182 18.9452 74.6789C18.9071 74.6408 18.9071 74.6014 18.8678 74.4846C18.8297 74.3691 18.7903 74.2523 18.751 74.0974C18.6735 73.9412 18.5961 73.7864 18.4793 73.5921C18.3625 73.3979 18.2076 73.243 17.974 73.0487C17.701 72.8164 17.4294 72.6602 17.1577 72.5828C16.8847 72.5054 16.5737 72.4673 16.2626 72.4673C15.9516 72.5054 15.6799 72.5828 15.3688 72.6996C15.0578 72.8545 14.7848 73.0487 14.5525 73.2823C14.2796 73.554 14.0472 73.8257 13.9304 74.0974C13.7743 74.3691 13.7362 74.6408 13.6968 74.9125C13.6968 75.1842 13.7362 75.4558 13.8517 75.6882C13.9685 75.9205 14.1628 76.1541 14.3964 76.3864C14.5525 76.5032 14.7074 76.62 14.8636 76.7368C15.0578 76.8524 15.2127 76.8917 15.4069 76.9692L16.6905 75.7275L15.6405 74.7957C15.6024 74.7563 15.6024 74.7182 15.6024 74.6408C15.6024 74.6014 15.6799 74.524 15.7573 74.4465C15.7967 74.4072 15.8348 74.3691 15.8741 74.3297C15.9135 74.2904 15.9516 74.2904 15.9909 74.2904C16.0303 74.2904 16.0303 74.2904 16.0684 74.2904C16.1077 74.2904 16.1077 74.2904 16.1458 74.3297L17.6236 75.6107C17.663 75.6488 17.663 75.6488 17.701 75.6882C17.701 75.7275 17.7404 75.7656 17.7404 75.805C17.7404 75.8431 17.7404 75.8824 17.701 75.9205C17.663 75.9599 17.663 75.9992 17.6236 76.0373L15.9135 77.6674C15.8348 77.7068 15.7967 77.7449 15.7192 77.7842C15.6405 77.8236 15.5631 77.8236 15.4856 77.7842C15.3688 77.7449 15.252 77.7068 15.0959 77.6674C14.941 77.6293 14.7848 77.5519 14.6693 77.4732C14.5132 77.3957 14.3964 77.3183 14.2415 77.2015C14.1247 77.1241 13.9685 77.0085 13.8517 76.8917C13.5026 76.5807 13.2296 76.2316 13.0747 75.8824C12.8805 75.5333 12.803 75.1842 12.803 74.8337C12.803 74.4846 12.8805 74.1355 13.0747 73.7864C13.2296 73.4372 13.5026 73.0881 13.8517 72.777C14.2021 72.4279 14.5906 72.1956 14.9804 72.0013C15.3688 71.8452 15.7573 71.7296 16.1852 71.7296C16.5737 71.7296 17.0015 71.7677 17.39 71.9239C17.7798 72.0788 18.1683 72.273 18.4793 72.5828C18.6735 72.739 18.7903 72.8938 18.9452 73.0487C19.062 73.2036 19.1788 73.3598 19.2563 73.5147C19.335 73.6696 19.4124 73.7864 19.4124 73.9032C19.4518 74.0187 19.4518 74.0974 19.4518 74.1748C19.4518 74.2129 19.4518 74.2904 19.4124 74.3297C19.4518 74.4072 19.3731 74.4465 19.335 74.524ZM10.7806 73.2823C10.7413 73.3204 10.6638 73.3204 10.6245 73.3598C10.5864 73.3598 10.547 73.3598 10.4696 73.3598C10.4302 73.3598 10.3921 73.3204 10.3528 73.3204C10.3134 73.2823 10.2753 73.2823 10.2753 73.243L10.1192 73.0487C10.0811 72.9713 10.0417 72.9319 10.0024 72.8545C10.0024 72.777 9.96428 72.739 10.0024 72.6602C10.0024 72.5828 10.0417 72.5054 10.0811 72.4279C10.1192 72.3505 10.1585 72.2337 10.236 72.1169L12.181 68.7411C12.2965 68.5468 12.3752 68.3919 12.492 68.1977C12.6075 68.0034 12.7243 67.8486 12.8411 67.6543C12.6469 67.7699 12.4526 67.8867 12.2584 68.0415C12.0641 68.1583 11.8305 68.2751 11.6363 68.43L8.40905 70.3712C8.40905 70.3712 8.36969 70.3712 8.33161 70.3712C8.29225 70.3712 8.29225 70.3712 8.25289 70.3318C8.21481 70.3318 8.21481 70.2938 8.17545 70.2544C8.13609 70.215 8.09801 70.177 8.05865 70.0995C8.02056 70.0221 7.98121 69.9827 7.98121 69.9434C7.94185 69.9053 7.94185 69.8659 7.94185 69.8278C7.94185 69.7885 7.94185 69.7885 7.94185 69.7504C7.94185 69.711 7.98121 69.711 7.98121 69.711L12.9186 66.7605C13.0354 66.6831 13.1141 66.6831 13.2296 66.7225C13.3083 66.7605 13.3858 66.7999 13.4251 66.8773L13.6575 67.1884C13.6968 67.2658 13.7362 67.3433 13.7743 67.3826C13.8136 67.4207 13.8136 67.4982 13.8136 67.5769C13.8136 67.615 13.7743 67.6924 13.7743 67.7699C13.7362 67.8486 13.6968 67.926 13.6575 68.0035L12.1416 70.6035C12.0641 70.7584 11.9473 70.9146 11.8699 71.0695C11.7912 71.2244 11.6744 71.3805 11.5969 71.496C11.5195 71.6522 11.4421 71.7677 11.3253 71.9239C11.2465 72.0788 11.1691 72.1956 11.0523 72.3505C11.2859 72.2337 11.4801 72.0788 11.7137 71.9239C11.9473 71.7677 12.181 71.6522 12.4133 71.496L15.3295 69.7504C15.3688 69.7504 15.3688 69.7504 15.4069 69.7504C15.4463 69.7504 15.4463 69.7504 15.4856 69.7885C15.5237 69.7885 15.5631 69.8278 15.5631 69.8659C15.5631 69.9053 15.6405 69.9434 15.6799 70.0221C15.7192 70.0602 15.7573 70.1376 15.7573 70.177C15.7967 70.215 15.7967 70.2544 15.7967 70.2938C15.7967 70.3318 15.7967 70.3318 15.7967 70.3712C15.7967 70.4093 15.7573 70.4093 15.7573 70.4093L10.7806 73.2823ZM11.131 64.1224L7.7476 64.2773L8.56394 66.1791L11.131 64.1224ZM7.28167 68.3132C7.24232 68.3526 7.16487 68.3919 7.12551 68.3919C7.08616 68.3919 7.04807 68.3919 7.00871 68.3919C6.97063 68.3919 6.93127 68.3526 6.93127 68.3132C6.89191 68.2751 6.85383 68.1977 6.81447 68.1203C6.77511 68.0415 6.73703 67.9641 6.73703 67.926C6.73703 67.8867 6.69767 67.8486 6.69767 67.8092C6.69767 67.7699 6.69767 67.7699 6.69767 67.7318C6.69767 67.6924 6.73703 67.6924 6.73703 67.6543L7.98121 66.645L6.97063 64.3941L5.33669 64.4715C5.2986 64.4715 5.25924 64.4715 5.25924 64.4715C5.21989 64.4715 5.21989 64.4321 5.1818 64.4321C5.14244 64.3941 5.14244 64.3941 5.10436 64.3153C5.065 64.2773 5.02564 64.1998 5.02564 64.1224C4.98756 64.0437 4.9482 63.9662 4.9482 63.9281C4.9482 63.8888 4.9482 63.8113 4.9482 63.8113C4.9482 63.772 4.98756 63.772 5.02564 63.7339C5.065 63.7339 5.14244 63.6945 5.21989 63.6945L11.5589 63.4622C11.5969 63.4622 11.6363 63.4622 11.6744 63.4622C11.7137 63.4622 11.7137 63.5003 11.7531 63.5396C11.7912 63.579 11.7912 63.6171 11.8305 63.6564C11.8699 63.6945 11.908 63.772 11.9473 63.8507C11.9854 63.9281 12.0248 64.0056 12.0248 64.083C12.0641 64.1605 12.0641 64.1998 12.0641 64.2379C12.0641 64.2773 12.0641 64.3153 12.0641 64.3547C12.0641 64.3941 12.0248 64.3941 11.9854 64.4321L7.28167 68.3132ZM4.63715 62.3361C4.5978 62.3361 4.5978 62.3361 4.55971 62.3361C4.52035 62.3361 4.52035 62.298 4.48227 62.298C4.48227 62.2586 4.44291 62.2206 4.44291 62.1812C4.44291 62.1418 4.40355 62.0644 4.40355 61.9869C4.40355 61.9095 4.36547 61.8321 4.36547 61.7927C4.36547 61.7546 4.36547 61.7153 4.36547 61.6772C4.36547 61.6378 4.36547 61.6378 4.40355 61.5985C4.40355 61.5985 4.44291 61.5604 4.48227 61.5604L7.24232 61.017L6.62022 58.4169L3.86018 58.9603C3.82082 58.9603 3.82082 58.9603 3.78146 58.9603C3.74338 58.9603 3.74338 58.9209 3.70402 58.9209C3.70402 58.8816 3.66466 58.8435 3.66466 58.8041C3.62657 58.766 3.62657 58.6886 3.62657 58.6099C3.62657 58.5324 3.58722 58.4944 3.58722 58.4169C3.58722 58.3776 3.58722 58.3382 3.58722 58.3001C3.58722 58.2608 3.58722 58.2608 3.62657 58.2227C3.62657 58.2227 3.66466 58.1833 3.70402 58.1833L9.73068 57.0191C9.77003 57.0191 9.77003 57.0191 9.80812 57.0191C9.84748 57.0191 9.84748 57.0572 9.88683 57.0572C9.88683 57.0966 9.92492 57.1359 9.92492 57.174C9.96428 57.2134 9.96428 57.2908 9.96428 57.3682C9.96428 57.4457 10.0024 57.5231 10.0024 57.5625C10.0024 57.6006 10.0024 57.6399 10.0024 57.6793C10.0024 57.7174 10.0024 57.7174 9.96428 57.7567C9.96428 57.7567 9.92492 57.7948 9.88683 57.7948L7.35912 58.3001L7.98121 60.9002L10.5089 60.3962C10.547 60.3962 10.547 60.3962 10.5864 60.3962C10.6245 60.3962 10.6245 60.4343 10.6638 60.4343C10.6638 60.4736 10.7032 60.5117 10.7032 60.5511C10.7032 60.5904 10.7413 60.6679 10.7413 60.7453C10.7413 60.8228 10.7806 60.8621 10.7806 60.9396C10.7806 60.9776 10.7806 61.017 10.7806 61.0551C10.7806 61.0944 10.7806 61.0944 10.7413 61.1338C10.7413 61.1338 10.7032 61.1719 10.6638 61.1719L4.63715 62.3361ZM64.3984 53.8757L66.7713 54.0305C66.8094 54.0305 66.8094 54.0305 66.8487 54.0686C66.8487 54.0686 66.8881 54.108 66.8881 54.1473C66.8881 54.1854 66.8881 54.2248 66.8881 54.2629C66.8881 54.3022 66.8881 54.3797 66.8881 54.4571C66.8881 54.5346 66.8881 54.612 66.8487 54.6514C66.8487 54.6907 66.8094 54.7288 66.8094 54.7682C66.8094 54.8063 66.7713 54.8063 66.7713 54.8456C66.7319 54.8456 66.7319 54.8456 66.6926 54.8456L64.321 54.6907L60.5885 56.1266C60.511 56.1647 60.4336 56.1647 60.3942 56.1647C60.3549 56.1647 60.3168 56.1647 60.3168 56.1266C60.2774 56.0872 60.2774 56.0492 60.2774 56.0098C60.2774 55.9324 60.2774 55.8549 60.2774 55.7775C60.2774 55.6988 60.2774 55.6213 60.3168 55.5439C60.3168 55.5058 60.3549 55.4271 60.3549 55.4271C60.3549 55.389 60.3942 55.389 60.3942 55.3496C60.4336 55.3496 60.4336 55.3115 60.4717 55.3115L62.3773 54.612C62.5715 54.5346 62.7277 54.4965 62.96 54.419C63.1543 54.3403 63.3498 54.3022 63.544 54.2248C63.3498 54.1473 63.1936 54.0686 62.9994 53.9912C62.8051 53.9137 62.649 53.8363 62.4547 53.7195L60.6659 52.7889C60.6278 52.7889 60.5885 52.7495 60.5885 52.7495C60.5491 52.7495 60.5491 52.7102 60.5491 52.6721C60.5491 52.6327 60.5491 52.5947 60.5491 52.5553C60.5491 52.5172 60.5491 52.4385 60.5491 52.3611C60.5491 52.2455 60.5885 52.1668 60.5885 52.0894C60.5885 52.0119 60.6278 51.9738 60.6278 51.9738C60.6659 51.9345 60.6659 51.9345 60.7446 51.9738C60.7827 51.9738 60.8601 52.0119 60.8995 52.0513L64.3984 53.8757ZM60.5885 56.5925C60.6659 56.5925 60.7053 56.6306 60.7446 56.6306C60.7827 56.6306 60.8221 56.67 60.8601 56.67C60.8995 56.67 60.8995 56.7081 60.8995 56.7474C60.8995 56.7855 60.8995 56.7855 60.8995 56.8249L60.511 58.455L65.9537 59.5037C65.993 59.5037 65.993 59.5037 66.0324 59.5418C66.0324 59.5418 66.0705 59.5811 66.0705 59.6192C66.0705 59.6586 66.0705 59.6966 66.0705 59.736C66.0705 59.7754 66.0705 59.8528 66.0324 59.9302C66.0324 60.0077 65.993 60.047 65.993 60.1245C65.9537 60.1626 65.9537 60.2019 65.9537 60.24C65.9537 60.2794 65.9156 60.2794 65.8762 60.2794C65.8381 60.2794 65.8381 60.2794 65.7988 60.2794L60.3549 59.232L59.9664 60.8621C59.9664 60.9002 59.9664 60.9002 59.927 60.9396C59.927 60.9396 59.8889 60.9776 59.8496 60.9776C59.8115 60.9776 59.7721 60.9776 59.7328 60.9776C59.6947 60.9776 59.616 60.9776 59.5779 60.9396C59.5004 60.9396 59.4611 60.9002 59.4217 60.9002C59.3836 60.9002 59.3443 60.8621 59.3049 60.8621C59.2668 60.8621 59.2668 60.8228 59.2668 60.7834C59.2668 60.7453 59.2668 60.7453 59.2668 60.706L60.2 56.7081C60.2 56.67 60.2 56.67 60.2381 56.6306C60.2381 56.6306 60.2774 56.5925 60.3168 56.5925C60.3549 56.5925 60.3942 56.5925 60.4336 56.5925C60.4717 56.5532 60.5491 56.5532 60.5885 56.5925ZM64.9431 63.3073C64.9824 63.3073 64.9824 63.3454 64.9824 63.3454C64.9824 63.3454 65.0205 63.3848 65.0205 63.4228C65.0205 63.4622 65.0205 63.5003 65.0205 63.5396C65.0205 63.579 64.9824 63.6564 64.9824 63.7339C64.9431 63.8113 64.9431 63.8507 64.905 63.8888C64.8656 63.9281 64.8656 63.9662 64.8263 64.0056C64.7882 64.0437 64.7882 64.0437 64.7488 64.0437C64.7095 64.0437 64.7095 64.0437 64.6714 64.0437L58.8783 62.1038C58.839 62.1038 58.839 62.0644 58.839 62.0644C58.839 62.0263 58.839 62.0263 58.839 61.9869C58.839 61.9489 58.839 61.9095 58.839 61.8702C58.839 61.8321 58.8783 61.7546 58.8783 61.7153C58.9164 61.6378 58.9164 61.5985 58.9558 61.5604C58.9939 61.521 58.9939 61.4829 59.0332 61.4436C59.0726 61.4055 59.0726 61.4055 59.1107 61.4055C59.15 61.4055 59.15 61.4055 59.1894 61.4055L64.9431 63.3073ZM62.5715 65.0149C62.8432 65.1304 63.0768 65.2866 63.233 65.4808C63.3879 65.6738 63.5047 65.868 63.5821 66.1016C63.6608 66.334 63.6608 66.5676 63.6215 66.8393C63.5821 67.1109 63.5047 67.3433 63.3879 67.615C63.3104 67.8092 63.1936 67.9641 63.0768 68.0809C62.96 68.2358 62.8432 68.3526 62.7658 68.43C62.649 68.5468 62.5715 68.6243 62.4547 68.6636C62.3773 68.7411 62.2998 68.7792 62.2211 68.7792C62.183 68.7792 62.1043 68.7792 62.0662 68.7792C61.9888 68.7792 61.9101 68.7411 61.8326 68.7017C61.7552 68.6636 61.7158 68.6636 61.6778 68.6243C61.6384 68.5849 61.599 68.5849 61.599 68.5468C61.561 68.5075 61.561 68.5075 61.561 68.4694C61.561 68.43 61.561 68.43 61.561 68.3919C61.561 68.3526 61.6384 68.3132 61.7158 68.2751C61.7933 68.2358 61.9101 68.1583 62.0269 68.0809C62.1437 68.0035 62.2605 67.8867 62.4166 67.7699C62.5322 67.6543 62.649 67.4601 62.7658 67.2658C62.8432 67.1109 62.8826 66.9548 62.9219 66.7999C62.96 66.645 62.9219 66.5282 62.8826 66.3733C62.8432 66.2565 62.7658 66.1397 62.6883 66.0242C62.6109 65.9074 62.4547 65.8299 62.2998 65.7906C62.1437 65.7131 61.9888 65.7131 61.8326 65.7131C61.6778 65.7131 61.5216 65.7906 61.4048 65.868C61.2499 65.9455 61.1331 66.0242 60.9769 66.1397C60.8221 66.2565 60.6659 66.3733 60.511 66.4889C60.3549 66.6057 60.2 66.7225 60.0438 66.8393C59.8889 66.9548 59.6947 67.0335 59.5385 67.0716C59.3443 67.149 59.15 67.149 58.9558 67.149C58.7615 67.149 58.5279 67.1109 58.2943 66.9941C58.0607 66.8773 57.8665 66.7605 57.7116 66.6057C57.5555 66.4508 57.478 66.2565 57.4006 66.0623C57.3612 65.868 57.3218 65.6357 57.3612 65.4021C57.4006 65.1698 57.478 64.9374 57.5948 64.7038C57.6723 64.587 57.7116 64.4715 57.8284 64.3547C57.9059 64.2379 57.9833 64.1605 58.1001 64.0437C58.1775 63.9662 58.2943 63.8888 58.3718 63.8113C58.4505 63.7339 58.5279 63.6945 58.5673 63.6945C58.6054 63.6945 58.6447 63.6564 58.6447 63.6564C58.6828 63.6564 58.6828 63.6564 58.7222 63.6564C58.7615 63.6564 58.7996 63.6564 58.839 63.6945C58.8783 63.6945 58.9164 63.7339 58.9939 63.7339C59.0332 63.772 59.1107 63.772 59.15 63.8113C59.1894 63.8507 59.2275 63.8507 59.2275 63.8888C59.2668 63.9281 59.2668 63.9281 59.2668 63.9662C59.2668 64.0056 59.2668 64.0056 59.2668 64.0437C59.2668 64.083 59.1894 64.1224 59.15 64.1605C59.0726 64.1998 58.9939 64.2773 58.8783 64.3547C58.7615 64.4321 58.6828 64.5096 58.5673 64.6264C58.4505 64.7432 58.3718 64.8587 58.2943 65.0149C58.2169 65.1698 58.1775 65.2866 58.1775 65.4415C58.1775 65.5583 58.1775 65.6738 58.2169 65.7906C58.2563 65.9074 58.2943 65.9848 58.3718 66.0623C58.4505 66.1397 58.5279 66.2172 58.6447 66.2565C58.7996 66.334 58.9558 66.334 59.1107 66.334C59.2668 66.334 59.4217 66.2565 59.5779 66.1791C59.7328 66.1016 59.8889 66.0242 60.0057 65.9074C60.1606 65.7906 60.3168 65.6738 60.4717 65.5583C60.6278 65.4415 60.7827 65.3247 60.9389 65.2091C61.0938 65.0923 61.288 65.0149 61.4441 64.9755C61.6384 64.8981 61.8326 64.8981 62.0269 64.8981C62.1043 64.8587 62.3379 64.8981 62.5715 65.0149ZM26.178 11.7233V12.5777C26.178 12.6171 26.1386 12.6552 26.1386 12.6552C26.1386 12.6945 26.1005 12.6945 26.1005 12.7326L25.9444 12.9662C25.9063 12.9662 25.8669 12.9662 25.8669 12.9662C25.8276 12.9662 25.7895 12.9662 25.7895 12.9662H25.5165L25.4784 12.9269L25.4391 12.8888L25.3616 12.8494L25.2842 12.772L25.0887 12.4609L25.0506 12.4229C24.9732 12.3061 24.9338 12.1893 24.8564 12.0737L24.7396 11.8401L24.506 11.2967L24.3892 10.9857C24.2724 10.6759 24.1949 10.3268 24.0781 9.97766L24.1175 9.86086C24.1175 9.8215 24.1175 9.74406 24.1175 9.70597C24.1175 9.66662 24.1175 9.62726 24.1175 9.58917V9.31748C24.1175 9.27813 24.1175 9.27813 24.1175 9.24004C24.1175 9.20068 24.1175 9.20068 24.1175 9.1626C24.1175 9.08388 24.0781 9.00644 24.0781 8.929V8.77411L24.1175 8.65731V8.61922V8.57986L24.1556 8.54051V8.42498C24.1556 8.38562 24.1556 8.38562 24.1949 8.34753V8.26882C24.1949 8.26882 24.1949 8.26882 24.1949 8.23073L24.506 8.11393H24.5834C24.6228 8.11393 24.6228 8.11393 24.6621 8.15329C24.6621 8.19137 24.7002 8.23073 24.7002 8.26882C24.7396 8.34753 24.7776 8.38562 24.817 8.50242V8.77411L24.8564 8.81219V8.89091L24.8944 9.00644C24.8944 9.12324 24.9338 9.20068 24.9338 9.27813C24.9732 9.54982 25.0506 9.78342 25.0887 10.0551V10.1326L25.128 10.521L25.1674 10.6759L25.2055 10.8308L25.2842 10.9857L25.3223 11.1025L25.3616 11.1799L25.3997 11.2193L25.4391 11.2574L25.4784 11.2967L25.5165 11.3361L25.5559 11.3742L25.6727 11.491H25.7895L25.8276 11.4516L25.9063 11.3742V11.4516L25.9444 11.491L26.0218 11.6078L26.178 11.7233ZM24.2343 7.33822H24.0781L23.9613 7.26078H23.8839L23.8445 7.22142H23.7277L23.6896 7.18206H23.6503L23.6122 7.14398H23.5728L23.5335 7.06653L23.4954 7.02718L23.456 6.94973H23.4167V6.91038C23.4167 6.91038 23.4167 6.91038 23.4167 6.87229V6.83293V6.79485V6.44571H23.5728L23.6503 6.40636C23.6896 6.40636 23.6896 6.40636 23.7277 6.367H23.7671H23.8064H24.0007L24.0388 6.40636L24.1175 6.44571L24.1556 6.52316H24.3117L24.3511 6.56124L24.3892 6.6006L24.4285 6.63869L24.4666 6.67804L24.506 6.7174V6.79485L24.5453 6.98909V7.06653L24.506 7.18206V7.22142L24.4666 7.26078H24.4285L24.3892 7.29887H24.3117L24.2343 7.33822ZM27.8106 8.54051H27.7726H27.6938C27.6558 8.54051 27.6558 8.54051 27.6164 8.54051C27.577 8.54051 27.577 8.54051 27.539 8.54051H27.4222C27.4222 8.54051 27.4222 8.54051 27.4222 8.57986C27.4222 8.57986 27.4222 8.57986 27.4222 8.61922C27.4222 8.61922 27.4222 8.61922 27.4222 8.65731V8.69666C27.4222 8.73475 27.4615 8.8122 27.4615 8.85155L27.4996 8.89091V8.929L27.539 8.96835L27.6558 9.00644C27.6938 9.00644 27.7332 9.00644 27.8106 9.00644C27.8881 9.00644 27.8881 8.96835 27.8881 8.96835C27.8881 8.929 27.8881 8.89091 27.9668 8.85155L28.0049 8.81219L28.0443 8.77411L28.0836 8.73475V8.57986L28.0049 8.42498H27.9668C27.8106 8.54051 27.8106 8.54051 27.8106 8.54051ZM28.9774 7.8816V7.80415V7.8816ZM28.8225 8.30818L28.8606 8.23073L28.938 8.15329V8.03649L28.8225 8.30818ZM28.7057 8.30818H28.7831L28.8225 8.26882L28.7057 8.30818ZM27.6558 7.84224V7.8816L27.6938 7.91969H27.7726L27.6558 7.84224ZM27.577 9.86086C27.6164 10.1326 27.6558 10.3268 27.7332 10.521C27.8106 10.714 27.85 10.9083 27.9668 11.1419L28.0049 11.2193L28.0443 11.2574L28.0836 11.2967L28.1217 11.3361H28.3947C28.5115 11.2967 28.627 11.2574 28.7831 11.2193L28.8606 11.1799C28.8999 11.1799 28.9774 11.1419 29.0167 11.1419H29.0942H29.1335H29.1716L29.211 11.1025H29.2491L29.2884 11.0644L29.3278 11.0251L29.3659 10.9857L29.4052 10.9476V10.9083V10.8702V10.7927C29.4052 10.7534 29.4052 10.7534 29.4052 10.714V10.5591C29.4052 10.521 29.4446 10.521 29.4446 10.521V10.4042C29.4446 10.3649 29.4446 10.3649 29.4446 10.3268C29.4446 10.2874 29.4446 10.2874 29.4446 10.2494V10.21L29.4052 10.1326C29.4052 10.1326 29.4052 10.1326 29.4052 10.0932L29.3278 9.89895C29.3278 9.86086 29.3278 9.8215 29.3278 9.8215C29.3278 9.74406 29.2884 9.66662 29.2884 9.58917C29.2884 9.51173 29.2491 9.43429 29.2491 9.35557V9.20068L29.1716 9.12324H29.1335C29.0942 9.12324 29.0942 9.12324 29.0548 9.12324H29.0167H28.8225C28.8225 9.12324 28.8225 9.12324 28.7831 9.1626C28.7831 9.1626 28.7831 9.1626 28.7438 9.20068C28.7438 9.20068 28.7057 9.20068 28.7057 9.24004C28.7057 9.24004 28.6663 9.24004 28.6663 9.27813H28.627L28.5889 9.31748L28.5495 9.35557V9.47237V9.51173V9.54982C28.5495 9.58917 28.5495 9.58917 28.5495 9.62726V9.70597C28.5889 9.97766 28.7831 10.1706 28.938 10.2874L28.9774 10.3268C29.0167 10.3268 29.0548 10.3649 29.0942 10.3649C29.0942 10.3649 29.0942 10.3649 29.1335 10.3649L29.1716 10.4042V10.4423C29.1716 10.4817 29.1335 10.521 29.1335 10.5591C29.1335 10.5591 29.1335 10.5591 29.0942 10.5985L28.7831 10.4423L28.7438 10.4817H28.7057C28.6663 10.4817 28.627 10.4423 28.5889 10.4423C28.5495 10.4423 28.5115 10.4042 28.4721 10.4042L28.4327 10.3649L28.3947 10.3268L28.3553 10.2874L28.1991 9.93831C28.1611 9.86086 28.1217 9.78342 28.1217 9.74406C28.1217 9.70597 28.1217 9.70597 28.1217 9.70597H27.7332L27.6938 9.74406L27.577 9.86086ZM25.5559 4.1554L25.6333 4.11605L25.7108 4.07796L25.7895 4.0386C25.8276 4.0386 25.8276 4.0386 25.8669 4.0386C25.9063 4.0386 25.9444 4.0386 25.9444 4.00052L25.9837 4.0386C26.0218 4.0386 26.0218 4.07796 26.0612 4.07796V4.1554C26.1005 4.23285 26.1005 4.31029 26.1005 4.34965C26.1005 4.42709 26.1386 4.50454 26.1386 4.54389C26.1386 4.62134 26.178 4.73687 26.178 4.81558C26.178 4.93111 26.178 5.00856 26.178 5.12536L26.0612 6.01787L26.1386 6.09531H26.4116L26.7226 5.78554L27.3054 4.93111L27.3447 4.89303L27.3828 4.85367L27.4222 4.81558C27.4222 4.81558 27.4615 4.81558 27.4615 4.77623C27.4615 4.77623 27.4996 4.77623 27.4996 4.73687C27.4996 4.73687 27.539 4.73687 27.539 4.69878C27.539 4.69878 27.577 4.69878 27.577 4.65942C27.577 4.65942 27.6164 4.65942 27.6164 4.62134C27.6164 4.62134 27.6558 4.62134 27.6558 4.58198H27.6938H27.85L27.8881 4.62134L27.9275 4.65942L28.0049 4.73687C28.0049 4.77623 28.0049 4.77623 28.0049 4.81558C28.0049 4.85367 28.0049 4.85367 28.0049 4.89303V5.00856C28.0049 5.04791 28.0049 5.04791 28.0049 5.08727C28.0049 5.12536 28.0049 5.12536 28.0049 5.16471C28.0049 5.2028 28.0049 5.2028 28.0049 5.24216C28.0049 5.28025 28.0049 5.28025 28.0049 5.3196V5.47449L27.7332 6.367L28.0049 6.40636L28.0836 6.367L28.1611 6.28956H28.627L28.6663 6.32891H28.7057C28.7057 6.32891 28.7438 6.32891 28.7438 6.367C28.7438 6.367 28.7831 6.367 28.7831 6.40636C28.7831 6.40636 28.8225 6.40636 28.8225 6.44571C28.8225 6.44571 28.8606 6.44571 28.8606 6.4838L28.8999 6.52316L28.938 6.56124L28.9774 6.6006L29.0167 6.63869L29.0548 6.67804L29.1335 6.94973C29.211 7.14398 29.2491 7.33822 29.3278 7.53247L29.5601 7.648L29.7937 7.49311L30.3384 7.29887L30.4552 7.26078C30.5326 7.22142 30.6494 7.22142 30.7662 7.18206H30.9605L30.9998 7.22142L31.0379 7.26078L31.0773 7.29887L31.1941 7.53247L31.1547 7.68735L30.9998 8.03649L30.6888 8.15329C30.3777 8.26882 30.1048 8.38562 29.7937 8.46306L29.7556 8.69666L29.7163 8.929C29.7556 9.12324 29.7556 9.27813 29.7937 9.47237C29.8331 9.62726 29.8331 9.8215 29.8712 10.0157C29.988 10.0932 30.0667 10.1706 30.1822 10.21L30.2216 10.2494C30.2216 10.2494 30.2216 10.2874 30.2609 10.2874C30.2609 10.2874 30.2609 10.3268 30.299 10.3268V10.3649V10.4042V10.4423V10.4817V10.521V10.5591V10.5985V10.6366C30.2609 10.7927 30.2216 10.9476 30.1441 11.0644L30.0667 11.2574L29.988 11.5684C29.9105 11.7627 29.8712 11.995 29.7937 12.1893L29.7163 12.2286L29.6388 12.2667L29.5601 12.3061C29.522 12.3061 29.4827 12.3454 29.4827 12.3454C29.4446 12.3454 29.4052 12.3454 29.3659 12.3454L29.1716 12.1893L29.0167 12.0344H28.7057C28.627 12.0344 28.5495 12.0737 28.5115 12.0737C28.4327 12.1118 28.3159 12.1118 28.2385 12.1512C28.1991 12.1512 28.1991 12.1512 28.1611 12.1512C28.1217 12.1512 28.0836 12.1512 28.0836 12.1512H27.6164L27.539 12.1118L27.4615 12.0737L27.3828 12.0344L27.3447 11.9176L27.3054 11.8795L27.266 11.8401L27.2279 11.7627L27.0718 11.4135L26.9169 11.0644L26.8775 11.0251L26.8394 10.9857L26.8001 10.9476H26.6833H26.6439H26.6058C26.5665 10.9476 26.5665 10.9476 26.5284 10.9476C26.489 10.9476 26.489 10.9476 26.4497 10.9476H26.178L26.1386 10.9083C26.1005 10.8702 26.0612 10.8308 26.0218 10.7927C25.9837 10.7534 25.9837 10.6759 25.9837 10.6366C26.0612 10.5591 26.1386 10.4817 26.2173 10.4423L26.2948 10.4042C26.3329 10.4042 26.3329 10.3649 26.3329 10.3649L26.3722 10.3268L26.4116 10.2874L26.4497 10.2494L26.489 10.21L26.5284 10.1706L26.5665 10.0932L26.6058 10.0157L26.6439 9.93831C26.6439 9.89895 26.6833 9.89895 26.6833 9.86086C26.6833 9.8215 26.6833 9.8215 26.7226 9.78342V9.70597C26.7607 9.58917 26.7607 9.47237 26.7607 9.39493C26.7607 9.27813 26.7607 9.1626 26.7607 9.0458C26.7607 9.00644 26.7607 8.929 26.7607 8.89091C26.7607 8.85155 26.7607 8.77411 26.7607 8.73475V8.61922C26.7607 8.57986 26.7607 8.54051 26.7607 8.50242L26.8775 7.10462L26.8001 7.06653L26.7607 7.02718H26.6439L26.6058 7.06653L26.5665 7.10462V7.14398L26.0612 7.41567H25.7501L25.6727 7.37631H25.5559V7.29887L25.5165 7.26078L25.4784 7.18206L25.4391 7.06653L25.3997 6.98909L25.3616 6.87229L25.3223 6.63869V6.4838C25.3223 6.13467 25.3223 5.78554 25.3223 5.4364L25.4391 4.62134L25.5559 4.1554ZM28.3553 7.18206L28.4327 7.14398H28.5889L28.6663 7.22142L28.7831 7.29887L28.8225 7.33822V7.37631L28.8606 7.41567C28.8999 7.45375 28.8999 7.49311 28.938 7.53247C28.938 7.57055 28.9774 7.60991 28.9774 7.648V8.11393L28.8606 8.23073L28.7831 8.34753H28.627L28.5889 8.30818L28.5115 8.26882C28.4327 8.23073 28.3553 8.15329 28.2779 8.11393H28.1611L28.0049 8.03649C27.9275 8.03649 27.85 7.99713 27.7726 7.99713H27.7332H27.6938L27.6164 7.91969V7.84224L27.6558 7.80415L27.6938 7.7648L27.7726 7.68735L27.8106 7.648L27.85 7.60991C27.8881 7.57055 27.9275 7.53247 27.9275 7.53247L27.9668 7.49311L28.0049 7.45375L28.0443 7.41567C28.0836 7.37631 28.1217 7.33822 28.1611 7.33822C28.1991 7.29887 28.2779 7.26078 28.3159 7.22142C28.3159 7.22142 28.3159 7.22142 28.3553 7.18206ZM44.7632 8.03649L44.6858 8.19137L44.6464 8.23073C44.6084 8.23073 44.569 8.26882 44.5296 8.26882C44.4916 8.26882 44.4141 8.30818 44.3748 8.30818C44.3354 8.30818 44.258 8.34753 44.2186 8.34753L44.1412 8.38562H43.9863C43.9469 8.38562 43.9076 8.38562 43.8695 8.38562H43.8301C43.792 8.38562 43.7527 8.38562 43.7133 8.34753C43.6752 8.34753 43.6359 8.34753 43.5965 8.30818H43.5584C43.5191 8.30818 43.481 8.30818 43.4416 8.26882C43.4023 8.26882 43.3642 8.26882 43.3248 8.23073H43.0531L43.0138 8.26882L42.9744 8.30818L42.9363 8.34753L42.897 8.38562L42.8589 8.42498C42.8195 8.46306 42.8195 8.50242 42.7802 8.50242L42.6253 8.96835V9.0458V9.08388C42.6253 9.12324 42.6253 9.12324 42.5859 9.1626L42.6253 9.27813C42.7027 9.47237 42.7802 9.66662 42.8589 9.86086C42.8589 9.89895 42.8589 9.89895 42.897 9.93831C42.897 9.97766 42.897 9.97766 42.9363 10.0157V10.0551C42.9363 10.1326 42.9744 10.21 42.9744 10.2874V10.3649L43.0138 10.4042V10.4423C43.0138 10.4817 43.0531 10.4817 43.0531 10.521C43.0531 10.5985 43.0912 10.6759 43.0912 10.714C43.0912 10.7927 43.1306 10.8308 43.1306 10.9083C43.1306 10.9476 43.1699 10.9476 43.1699 10.9857V11.0251L43.208 11.0644L43.2474 11.2193V11.2574L43.2855 11.2967C43.2855 11.3361 43.3248 11.3742 43.3248 11.4135C43.3642 11.491 43.4416 11.6078 43.481 11.6852C43.5584 11.7627 43.5965 11.8401 43.6752 11.9176C43.7133 11.9569 43.7527 11.995 43.792 12.0737C43.8301 12.1118 43.8695 12.1512 43.9076 12.1893C43.9469 12.2286 43.9863 12.2667 44.0244 12.3061C44.0637 12.3454 44.1031 12.3835 44.1412 12.4229C44.1805 12.4609 44.1805 12.5003 44.2186 12.5003C44.258 12.5384 44.2973 12.5777 44.2973 12.5777L44.4141 12.6945L44.569 12.8101L44.6084 12.8494L44.6464 12.8888L44.6858 12.9269L44.7632 13.0043H44.7252C44.7252 13.0043 44.6858 13.0043 44.6858 13.0437L44.4522 13.3154C44.4522 13.3154 44.4522 13.3154 44.4141 13.3154C44.4141 13.3154 44.3748 13.3154 44.3748 13.3535C44.3748 13.3535 44.3354 13.3535 44.3354 13.3928H44.2186C44.2186 13.3928 44.2186 13.3928 44.1805 13.3928L44.0244 13.3535L43.792 13.2379C43.7527 13.1986 43.7133 13.1986 43.6752 13.1605C43.6359 13.1211 43.5965 13.1211 43.5584 13.0818C43.5191 13.0437 43.481 13.0437 43.4416 13.0043C43.4023 12.9662 43.3642 12.9662 43.3248 12.9269C43.2855 12.8888 43.2474 12.8888 43.2474 12.8494C43.208 12.8101 43.1699 12.8101 43.1699 12.772V12.7326C43.1306 12.6945 43.0912 12.6945 43.0531 12.6552L42.9363 12.5777L42.8195 12.4609L42.7802 12.4229L42.7421 12.3835L42.7027 12.3454L42.6634 12.3061L42.6253 12.2286L42.5478 12.1118L42.5085 11.9569L42.431 11.7233C42.431 11.6852 42.3917 11.6459 42.3917 11.6078C42.3917 11.5684 42.3523 11.5291 42.3523 11.491C42.3142 11.3361 42.2749 11.1799 42.2368 11.0644C42.1974 10.9083 42.1581 10.7927 42.12 10.6366L42.0806 10.4817L42.0413 10.4423L42.0032 10.3649V10.0932C42.0032 10.0157 42.0032 9.97766 41.9638 9.89895V9.8215L41.9258 9.74406L41.8864 9.66662L41.809 9.58917L41.7302 9.54982L41.6528 9.51173H41.4585L41.4192 9.58917C41.4192 9.62726 41.3811 9.62726 41.3811 9.66662V9.70597L41.3417 9.74406L41.3037 9.78342V9.8215L41.2643 9.86086L41.2249 9.89895C41.0701 10.0551 40.9139 10.2494 40.7971 10.4042L40.759 10.4423C40.6803 10.4817 40.6422 10.5591 40.5648 10.5985L40.5254 10.6366L40.0582 11.0644L39.9808 11.1419C39.9808 11.1419 39.9808 11.1419 39.9427 11.1419C39.9427 11.1419 39.9427 11.1419 39.9033 11.1419L39.864 11.1799H39.8259L39.7865 11.2193L39.7472 11.2574L39.7091 11.2967C39.7091 11.2967 39.6697 11.3361 39.6697 11.3742L39.6316 11.4135H39.5923L39.5148 11.4516H39.4755H39.4361C39.4361 11.4516 39.398 11.4516 39.398 11.491C39.3206 11.491 39.2812 11.491 39.2038 11.491C39.1251 11.491 39.0476 11.491 38.9702 11.491C38.9308 11.491 38.9308 11.491 38.8927 11.491C38.8534 11.491 38.8534 11.491 38.814 11.491H38.7366C38.6985 11.4516 38.6591 11.4516 38.5817 11.4135C38.5817 11.4135 38.5423 11.4135 38.5423 11.3742C38.5423 11.3742 38.503 11.3742 38.503 11.3361H38.4649H38.503C38.5423 11.3361 38.5423 11.2967 38.5817 11.2967L38.7366 11.2193C38.7366 11.2193 38.7366 11.2193 38.7759 11.2193H38.814V11.1799L38.8534 11.1419L38.8927 11.1025C38.9702 11.0251 39.087 10.9857 39.2038 10.9083C39.3206 10.8308 39.398 10.7927 39.5148 10.714H39.5529L39.6316 10.6759H39.6697C39.6697 10.6366 39.7091 10.6366 39.7091 10.5985C39.7091 10.5985 39.7472 10.5985 39.7472 10.5591H39.7865C39.9033 10.4423 40.0201 10.3649 40.1369 10.2494C40.175 10.21 40.2537 10.1326 40.2918 10.0932C40.3312 10.0551 40.4086 9.97766 40.448 9.93831C40.4861 9.89895 40.4861 9.89895 40.5254 9.86086L40.6422 9.74406C40.6803 9.70597 40.6803 9.66662 40.7197 9.66662L40.759 9.62726L40.7971 9.58917H40.9139L40.9533 9.54982V9.51173C41.0307 9.39493 41.1475 9.31748 41.2249 9.20068C41.2643 9.12324 41.3417 9.08388 41.3811 9.00644C41.4192 8.96835 41.4192 8.929 41.4585 8.929C41.4979 8.89091 41.4979 8.85155 41.536 8.85155C41.536 8.8122 41.5753 8.8122 41.5753 8.77411V8.65731V8.61922V8.54051L41.4979 8.42498C41.4585 8.42498 41.4192 8.46306 41.3811 8.46306H41.3417H41.3037C41.2643 8.46306 41.2643 8.46306 41.2249 8.46306C41.1869 8.46306 41.1869 8.46306 41.1475 8.46306H41.0701C41.0307 8.46306 40.9913 8.46306 40.9533 8.46306C40.9139 8.46306 40.8365 8.46306 40.7971 8.46306H40.6803C40.6422 8.46306 40.6029 8.46306 40.5648 8.46306H40.5254H40.4861H40.448L40.3693 8.50242H40.1369L40.0582 8.46306L39.9808 8.42498L39.9033 8.38562L39.8259 8.30818V8.34753L39.7472 8.26882L39.7091 8.19137L39.6697 8.11393L39.6316 8.03649V7.72544L39.6697 7.648L39.7091 7.57055L39.8259 7.45375L39.9033 7.41567H39.9427C39.9808 7.41567 39.9808 7.37631 40.0201 7.37631H40.0582H40.2144C40.2537 7.37631 40.2918 7.37631 40.3312 7.37631C40.3693 7.37631 40.4086 7.37631 40.4861 7.41567H40.5648L40.6422 7.45375H40.7197C40.759 7.45375 40.7971 7.45375 40.8365 7.45375H40.8758L41.0307 7.41567L41.1475 7.37631L41.2643 7.33822H41.4585C41.4979 7.33822 41.4979 7.33822 41.536 7.33822C41.5753 7.33822 41.5753 7.33822 41.6147 7.33822L41.847 7.37631L41.8864 7.33822C41.9258 7.33822 41.9258 7.33822 41.9638 7.33822H42.0413C42.12 7.33822 42.1974 7.29887 42.2749 7.26078C42.3523 7.22142 42.431 7.22142 42.5085 7.18206L42.5859 7.14398C42.6253 7.06653 42.6253 6.98909 42.6634 6.94973L42.7027 6.91038C42.7421 6.83293 42.7802 6.75549 42.8195 6.67804C42.8589 6.6006 42.897 6.52316 42.897 6.44571C42.9363 6.367 42.9363 6.32891 42.9744 6.25147C43.0138 6.17402 43.0138 6.13467 43.0531 6.05722C43.0531 6.01787 43.0912 5.97978 43.0912 5.90234C43.0912 5.86298 43.1306 5.82362 43.1306 5.74618L43.1699 5.55193L43.208 5.47449V4.97047L43.1699 4.93111L43.1306 4.89303V4.85367C43.1306 4.85367 43.1306 4.85367 43.1306 4.81558C43.1306 4.81558 43.1306 4.77623 43.0912 4.77623V4.73687V4.69878V4.65942L43.1699 4.50454L43.208 4.46518L43.2474 4.42709L43.2855 4.38774L43.3248 4.34965L43.4023 4.27221H43.8301L43.8695 4.31029L43.9076 4.38774C43.9469 4.46518 44.0244 4.54389 44.0637 4.65942C44.0637 4.65942 44.0637 4.69878 44.1031 4.69878V4.73687V4.77623C44.1031 4.77623 44.1031 4.77623 44.1031 4.81558C44.1031 4.81558 44.1031 4.81558 44.1031 4.85367C44.1031 4.85367 44.1031 4.89303 44.1412 4.89303C44.1412 4.89303 44.1412 4.89303 44.1412 4.93111V4.97047C44.1412 5.00856 44.1412 5.04791 44.1412 5.12536C44.1412 5.16471 44.1031 5.2028 44.1031 5.24216V5.28025C44.0637 5.39705 44.0244 5.51385 44.0244 5.63065C43.9863 5.74618 43.9469 5.86298 43.9469 5.97978L43.8695 6.21211C43.8301 6.25147 43.8301 6.32891 43.792 6.367C43.7527 6.40636 43.7527 6.4838 43.7133 6.52316L43.6752 6.63869C43.6359 6.67804 43.6359 6.75549 43.5965 6.79485C43.5584 6.83293 43.5584 6.91038 43.5191 6.94973C43.5191 6.98909 43.481 7.02718 43.481 7.10462V7.26078L43.5191 7.29887L43.5584 7.33822H43.6359C43.6752 7.33822 43.6752 7.33822 43.7133 7.33822L43.792 7.37631H43.8301H43.8695H43.9076L44.0637 7.41567H44.258L44.3354 7.45375L44.5296 7.648H44.7252L44.7632 7.68735L44.8026 7.72544V7.84224L44.7632 8.03649ZM58.7996 16.4588V16.808C58.7996 16.8473 58.839 16.8854 58.839 16.9248C58.839 16.9641 58.839 16.9641 58.839 17.0022C58.839 17.0022 58.839 17.0416 58.7996 17.0416C58.7996 17.0416 58.7996 17.0796 58.7615 17.0796L58.7222 17.119L58.6828 17.1571L58.6447 17.1964L58.6054 17.2358L58.5673 17.2739L58.4886 17.3132C58.4886 17.3132 58.4505 17.3132 58.4505 17.3513H58.4111C58.3718 17.3513 58.3718 17.3132 58.3337 17.3132C58.2943 17.3132 58.2943 17.2739 58.2563 17.2739C58.2169 17.2358 58.1775 17.2358 58.1001 17.1964C57.9833 17.1571 57.9059 17.0796 57.8284 17.0416C57.7891 17.0022 57.7116 16.9641 57.6723 16.9248C57.6329 16.8854 57.5948 16.808 57.5555 16.7699C57.5948 16.7305 57.6329 16.7305 57.6723 16.6924C57.7116 16.6924 57.7116 16.6531 57.7497 16.6531C57.8284 16.6137 57.8665 16.5756 57.9439 16.5756L57.9833 16.5363C57.9833 16.4982 58.0227 16.4588 58.0227 16.4207C58.0227 16.3814 58.0607 16.3814 58.0607 16.342V16.1871L58.0227 16.1097C57.9833 16.1097 57.9833 16.1097 57.9439 16.1097C57.9059 16.0703 57.8665 16.0323 57.8284 16.0323H57.7891C57.7116 15.9929 57.6329 15.9548 57.5948 15.8774L57.5555 15.838C57.5174 15.838 57.5174 15.7986 57.478 15.7986C57.478 15.7606 57.4387 15.7606 57.4387 15.7606L57.4006 15.7212L57.3218 15.6438L57.167 15.4889L57.0895 15.4495L56.9727 15.4114C56.9334 15.4114 56.9334 15.3721 56.8953 15.3721C56.8559 15.3721 56.8559 15.3721 56.8166 15.334C56.7785 15.2946 56.7391 15.2553 56.6617 15.2172C56.6223 15.1778 56.5842 15.1397 56.5055 15.1397H56.4674L56.3506 15.0229H56.3113L56.2732 14.9836H56.1564C56.117 14.9836 56.117 14.9836 56.0777 14.9836C56.0396 14.9836 56.0396 14.9836 56.0002 14.9836L55.9228 14.9455H55.8453L55.806 14.9061H55.7666C55.7666 14.9061 55.7285 14.9061 55.7285 14.8681C55.7285 14.8681 55.6892 14.8681 55.6892 14.8287H55.6511H55.6117C55.5343 14.8287 55.4949 14.7906 55.4175 14.7906C55.3781 14.7513 55.3007 14.7513 55.2613 14.7119C55.2232 14.6738 55.1839 14.6738 55.1839 14.6345C55.1445 14.5964 55.1064 14.5964 55.1064 14.557C55.0671 14.5189 55.029 14.4796 54.9896 14.4402C54.9503 14.4021 54.9122 14.3628 54.8728 14.3247H54.8335L54.5618 13.9755C54.5224 13.9755 54.4844 13.9755 54.445 14.0136C54.3676 14.0136 54.3282 14.0136 54.2508 14.0136H54.0959L54.0172 14.053L53.9397 14.0911L53.8623 14.1304L53.7455 14.1685L53.668 14.2079C53.5893 14.2472 53.5512 14.2853 53.4725 14.2853H53.0459L53.0066 14.2472V14.2079V14.1685V14.1304V14.0911V14.053C53.0066 14.0136 53.0066 13.9755 52.9672 13.9362V13.6645L52.8898 13.4703C52.9291 13.4322 52.9672 13.3928 53.0066 13.3928L53.0459 13.3535H53.084C53.1234 13.3535 53.2008 13.3154 53.2402 13.3154C53.2783 13.3154 53.357 13.276 53.3951 13.276C53.4344 13.276 53.4725 13.276 53.4725 13.2379C53.5119 13.2379 53.5119 13.2379 53.5512 13.1986H53.7061L53.7455 13.2379L53.8229 13.1986C53.8623 13.1986 53.8623 13.1986 53.9004 13.1986C53.9397 13.1986 53.9397 13.1986 53.9791 13.1605C54.0172 13.1605 54.0172 13.1605 54.0565 13.1211H54.134L54.2114 13.0437L54.4069 13.0043L54.6012 12.9662H54.6392C54.6786 12.9662 54.718 12.9662 54.756 13.0043H54.7954C54.7954 13.0043 54.8335 13.0043 54.8335 13.0437L54.8728 13.0818L54.9122 13.1211C54.9122 13.1605 54.9122 13.1605 54.9122 13.1986C54.9122 13.2379 54.9122 13.2379 54.9122 13.276V13.4322L54.8728 13.4703L54.718 13.5871L54.8728 13.7039C54.9122 13.7419 54.9896 13.7813 55.029 13.8194L55.0671 13.8587L55.1064 13.8968L55.2232 13.8587H55.5724L55.8834 14.2079H56.2732L56.3506 14.2472C56.3887 14.2853 56.4281 14.3247 56.5055 14.3628C56.5449 14.4021 56.5449 14.4021 56.5842 14.4402L56.6617 14.5189H56.9727L57.0108 14.557L57.0895 14.5964C57.1276 14.6345 57.2063 14.6738 57.2444 14.7513C57.2838 14.7906 57.2838 14.7906 57.3218 14.8287H57.3612C57.4387 14.8681 57.5174 14.9061 57.5948 14.9455C57.6329 14.9455 57.6329 14.9836 57.6723 14.9836C57.7116 14.9836 57.7116 15.0229 57.7497 15.0229C57.7891 15.0229 57.7891 15.0623 57.8284 15.0623C57.8284 15.0623 57.8665 15.1004 57.9059 15.1004C57.9439 15.1004 57.9439 15.1397 57.9833 15.1397C58.0227 15.1397 58.0227 15.1778 58.0607 15.1778C58.1395 15.2553 58.1775 15.2946 58.2563 15.3721L58.2943 15.4114L58.3337 15.4495C58.3718 15.4889 58.4111 15.527 58.4505 15.5663C58.4886 15.6057 58.5279 15.6438 58.5673 15.6831L58.7222 15.9155C58.7615 15.9929 58.7996 16.0323 58.839 16.1097C58.839 16.1491 58.8783 16.1871 58.8783 16.1871L58.9164 16.2646L58.7996 16.4588ZM58.7222 13.0818H58.7996C58.839 13.0818 58.839 13.0818 58.8783 13.0818C58.9164 13.0818 58.9164 13.0818 58.9558 13.0818C59.0332 13.0818 59.1107 13.0818 59.15 13.1211V13.1605C59.15 13.1986 59.1894 13.276 59.1894 13.3154V13.3535C59.1894 13.3928 59.1894 13.4322 59.15 13.4703C59.15 13.5096 59.1107 13.5096 59.0726 13.5096L59.0332 13.5477L58.9939 13.5871C58.9558 13.6251 58.9558 13.6251 58.9164 13.6645H58.6447C58.6447 13.6645 58.6054 13.6645 58.6054 13.7039H58.5673L58.4886 13.7419V13.8194C58.5279 13.8587 58.5279 13.8968 58.5673 13.9362L58.7996 14.1685C58.839 14.1685 58.839 14.1685 58.8783 14.1304C58.9164 14.1304 58.9164 14.1304 58.9558 14.1304C58.9558 14.1304 58.9939 14.1304 59.0332 14.1304H59.15L59.1894 14.0911H59.2275C59.2668 14.0911 59.3049 14.0911 59.3443 14.0911C59.3836 14.0911 59.4217 14.0911 59.4611 14.1304H59.5004H59.5385H59.5779C59.616 14.1304 59.616 14.0911 59.6553 14.0911L59.8496 14.053H59.8889C59.9664 14.0136 60.0057 14.0136 60.0832 14.0136H60.1225H60.1606L60.2774 14.0911L60.511 14.3247V14.4796L60.4717 14.5189L60.4336 14.5964L60.3942 14.6738L60.3168 14.7513C60.2774 14.7906 60.2 14.8287 60.1606 14.8287L60.0832 14.8681C60.0438 14.8681 60.0438 14.9061 60.0057 14.9061C59.9664 14.9061 59.9664 14.9455 59.927 14.9455L59.8889 14.9836H59.616C59.5779 14.9836 59.5779 14.9836 59.5385 14.9455H59.5004H59.4611H59.4217H59.3836H59.3443H59.3049H59.2668L59.15 14.9061H58.8783C58.7996 14.8681 58.7615 14.8287 58.6828 14.8287L58.6447 14.7906H58.6054C58.5279 14.7513 58.4505 14.7119 58.4111 14.6738H58.3718C58.3337 14.6738 58.3337 14.6345 58.2943 14.6345C58.2563 14.6345 58.2563 14.5964 58.2169 14.5964C58.1775 14.557 58.1775 14.5189 58.1395 14.4796C58.1001 14.4402 58.1001 14.4021 58.0607 14.3628C58.0607 14.3247 58.0227 14.3247 58.0227 14.2853C58.0227 14.2472 57.9833 14.2472 57.9833 14.2079C57.9833 14.2079 57.9833 14.1685 57.9439 14.1685C57.9439 14.1685 57.9439 14.1304 57.9059 14.1304V14.0911V14.053V14.0136V13.9755V13.9362V13.8968V13.8587V13.8194V13.7419C57.9059 13.7039 57.9439 13.6645 57.9439 13.6645C57.9439 13.6251 57.9833 13.5871 57.9833 13.5871L58.0227 13.5477L58.0607 13.5096L58.1001 13.4703C58.1001 13.4703 58.1001 13.4322 58.1395 13.4322C58.1775 13.3928 58.1775 13.3928 58.2169 13.3535C58.2563 13.3154 58.2563 13.3154 58.2943 13.276L58.6447 13.1605C58.6828 13.1605 58.6828 13.1605 58.7222 13.1605C58.7222 13.1605 58.7222 13.1605 58.7615 13.1605L58.839 13.1211L58.7222 13.0818ZM55.7666 13.3154C55.7666 13.276 55.7666 13.276 55.806 13.276L55.8453 13.2379L55.8834 13.1986L56.0396 13.0437L56.0777 12.9662L56.6998 12.5003C56.7391 12.4609 56.7785 12.4609 56.8166 12.4229C56.8559 12.3835 56.8953 12.3835 56.9334 12.3454L57.0502 12.2667H57.0895L57.1276 12.2286C57.167 12.2286 57.167 12.1893 57.2063 12.1893H57.2444L57.2838 12.2286V12.3061C57.2838 12.3061 57.2838 12.3454 57.2838 12.3835C57.2838 12.4229 57.2838 12.4229 57.2838 12.4609V12.5003V12.5384V12.5777V12.6171V12.6552V12.6945C57.2838 12.6945 57.2838 12.7326 57.2444 12.7326C57.2444 12.7326 57.2444 12.772 57.2063 12.772C57.2063 12.8101 57.167 12.8101 57.167 12.8494C57.167 12.8494 57.167 12.8888 57.1276 12.8888L57.0502 12.9662V13.0043L57.0108 13.0437V13.1211L56.9727 13.1605L56.9334 13.1986L56.8559 13.2379L56.6223 13.3928L56.4281 13.5871C56.3887 13.5871 56.3506 13.6251 56.3113 13.6251C56.2338 13.6645 56.1945 13.6645 56.117 13.7039H55.806L55.7666 13.6645L55.7285 13.6251C55.7285 13.5871 55.6892 13.5871 55.6892 13.5477C55.6892 13.5096 55.6511 13.5096 55.6511 13.4703V13.4322C55.6511 13.3928 55.6511 13.3535 55.6117 13.3154L55.6511 13.276C55.7666 13.3535 55.7666 13.3154 55.7666 13.3154ZM52.1509 15.838L52.0734 15.7986C52.0341 15.7986 52.0341 15.7606 51.996 15.7606C51.996 15.7212 51.9566 15.7212 51.9566 15.6831C51.9566 15.6438 51.9173 15.6438 51.9173 15.6057L51.8792 15.5663V15.527C51.8792 15.4889 51.8398 15.4889 51.8398 15.4495C51.8398 15.4114 51.8018 15.4114 51.8018 15.3721V15.2553L51.8398 15.2172C51.8792 15.1778 51.9566 15.1397 51.996 15.1004H52.0341H52.0734H52.1128C52.1128 15.1004 52.1128 15.1004 52.1509 15.1004C52.2283 15.1397 52.2677 15.1778 52.307 15.2172L52.3451 15.2553C52.3845 15.2946 52.4619 15.3721 52.5013 15.4114L52.5787 15.4889C52.5787 15.4889 52.6181 15.4889 52.6181 15.527L52.6562 15.5663L52.6955 15.6057L52.7349 15.6831H52.773C52.8123 15.6831 52.8123 15.7212 52.8504 15.7212C52.8898 15.7212 52.9291 15.7606 52.9291 15.7606C52.9672 15.7606 52.9672 15.7986 53.0066 15.838C53.0459 15.8774 53.084 15.8774 53.084 15.9155C53.1234 15.9548 53.1615 15.9548 53.1615 15.9929C53.2402 16.0703 53.357 16.1491 53.4344 16.2265L53.4725 16.2646L53.5119 16.3039L53.5512 16.342C53.5512 16.342 53.5893 16.3814 53.6287 16.3814L53.668 16.4207L53.7455 16.4982C53.7836 16.4982 53.7836 16.5363 53.8229 16.5363L53.8623 16.5756H53.9004L53.9397 16.6137L53.9791 16.6531L54.0565 16.6924C54.0959 16.6531 54.134 16.6137 54.1733 16.6137C54.2114 16.5756 54.2508 16.5363 54.2901 16.4982L54.4069 16.4207L54.445 16.3814L54.4844 16.342C54.5224 16.3039 54.5224 16.2646 54.5618 16.2646H54.6012H54.6392C54.6392 16.2646 54.6392 16.2646 54.6786 16.2646H54.756H54.7954C54.7954 16.2646 54.8335 16.2646 54.8335 16.3039H54.8728C54.8728 16.3039 54.8728 16.3039 54.9122 16.3039C54.9122 16.3039 54.9122 16.3039 54.9503 16.3039H54.9896H55.029L55.1064 16.2265C55.1445 16.1491 55.1839 16.1097 55.2613 16.0323L55.3007 15.9929V15.9155L55.2613 15.7986V15.7606L55.2232 15.7212C55.2232 15.6831 55.1839 15.6438 55.1839 15.6057V15.4889L55.2613 15.4114L55.34 15.3721H55.4175C55.4175 15.3721 55.4175 15.3721 55.4556 15.3721H55.4949H55.5343H55.5724C55.5724 15.3721 55.6117 15.4114 55.6511 15.4114C55.6892 15.4114 55.6892 15.4495 55.7285 15.4495C55.7666 15.4889 55.806 15.4889 55.8453 15.527L55.8834 15.5663L55.9228 15.6057H55.9621C56.0002 15.6057 56.0002 15.6438 56.0396 15.6438H56.0777C56.117 15.6831 56.1564 15.6831 56.1564 15.7212C56.1945 15.7606 56.1945 15.7986 56.2338 15.7986L56.3113 15.9155C56.3113 15.9548 56.3113 15.9929 56.3113 15.9929C56.3113 16.0323 56.3113 16.0703 56.3506 16.1097C56.3506 16.1491 56.3887 16.1871 56.3887 16.2265V16.3039C56.3887 16.3039 56.3887 16.3039 56.3887 16.342V16.3814C56.3887 16.3814 56.3887 16.3814 56.3887 16.4207C56.3887 16.4588 56.3506 16.4588 56.3506 16.4982L56.3113 16.5363L56.2732 16.5756C56.2338 16.6137 56.1945 16.6531 56.117 16.6531C56.0777 16.6531 56.0396 16.6924 56.0002 16.6924H55.9621V16.6531C55.9228 16.6531 55.8834 16.6531 55.8453 16.6531C55.806 16.6531 55.7666 16.6531 55.6892 16.6531C55.6511 16.6531 55.6117 16.6531 55.5724 16.6531C55.5343 16.6531 55.4949 16.6531 55.4556 16.6531H55.4175H55.3781C55.3781 16.6531 55.3781 16.6531 55.34 16.6531C55.34 16.6531 55.34 16.6531 55.3007 16.6531C55.3007 16.6531 55.3007 16.6531 55.2613 16.6531C55.2613 16.6531 55.2613 16.6531 55.2232 16.6531C55.2232 16.6531 55.2232 16.6531 55.1839 16.6531C55.1839 16.6531 55.1839 16.6531 55.1445 16.6531H55.1064L55.0671 16.6924H54.9896L54.718 16.8854V16.9248L54.6786 16.9641V17.0796L54.718 17.1571L55.029 17.5456H55.0671L55.1839 17.7005C55.34 17.8947 55.4949 18.1283 55.6511 18.3226L55.6892 18.4V18.4381V18.4774V18.5155C55.6892 18.5155 55.6892 18.5549 55.6892 18.5942V18.6323V18.6717V18.7098C55.6892 18.7098 55.6892 18.7098 55.6892 18.7491V18.7872V18.8266C55.6892 18.8659 55.6892 18.8659 55.6892 18.904V18.9815C55.6892 19.0208 55.6892 19.0208 55.6511 19.0589V19.0983C55.6511 19.0983 55.6511 19.0983 55.6511 19.1376H55.6117H55.5724H55.5343H55.4949C55.4949 19.1376 55.4949 19.1376 55.4556 19.1376C55.4556 19.1376 55.4556 19.1376 55.4175 19.1376C55.4175 19.1376 55.3781 19.1376 55.3781 19.0983H55.34C55.34 19.0983 55.3007 19.0589 55.2613 19.0589C55.2232 19.0589 55.2232 19.0589 55.1839 19.0589H55.1445H55.1064L54.8728 18.7872C54.8728 18.7491 54.8728 18.7491 54.8728 18.7098C54.8728 18.6717 54.8728 18.6717 54.8728 18.6323V18.5942V18.5549C54.8728 18.5155 54.8728 18.4774 54.8335 18.4774V18.4C54.756 18.2832 54.6786 18.2058 54.6392 18.089C54.6012 18.0509 54.5618 17.9722 54.5224 17.9341C54.4844 17.8947 54.445 17.8566 54.4069 17.7792L54.3676 17.7398H54.3282C54.2901 17.7398 54.2901 17.7398 54.2508 17.7398C54.2114 17.7398 54.2114 17.7398 54.1733 17.7398C54.134 17.7398 54.134 17.7398 54.0959 17.7398C54.0565 17.7398 54.0565 17.7398 54.0172 17.7398C53.9791 17.7398 53.9397 17.7398 53.9004 17.7792C53.8623 17.7792 53.8229 17.7792 53.7836 17.8173C53.6287 17.8566 53.5119 17.8947 53.357 17.9722C53.357 17.9722 53.357 17.9722 53.3176 17.9722H53.2783C53.2008 18.0115 53.1615 18.0115 53.084 18.0509C53.0066 18.089 52.9291 18.089 52.8898 18.1283C52.8504 18.1283 52.8123 18.1664 52.773 18.1664C52.7349 18.1664 52.6955 18.2058 52.6562 18.2058C52.6181 18.2058 52.5787 18.2058 52.5787 18.2438C52.5394 18.2438 52.5013 18.2438 52.5013 18.2832C52.4619 18.2832 52.4619 18.2832 52.4238 18.2832C52.3845 18.2832 52.3845 18.2832 52.3451 18.2832C52.307 18.2832 52.307 18.2832 52.2677 18.2832C52.2283 18.2832 52.2283 18.2832 52.1902 18.2832C52.1509 18.2832 52.1509 18.2832 52.1128 18.2832C52.0734 18.2832 52.0734 18.2832 52.0341 18.2832H51.9173C51.9173 18.2832 51.9173 18.2832 51.8792 18.2832C51.8792 18.2832 51.8792 18.2832 51.8398 18.2832H51.8018C51.8018 18.2832 51.8018 18.2832 51.7624 18.2832C51.7624 18.2832 51.7624 18.2832 51.723 18.2832C51.685 18.2832 51.6456 18.2832 51.6456 18.2832C51.6062 18.2832 51.6062 18.2832 51.5681 18.2832C51.5288 18.2832 51.5288 18.2832 51.4907 18.2832H51.3739L51.2952 18.2058L51.2177 18.1283H51.3345L51.2952 18.0509L51.2571 17.9722V17.8173L51.3739 17.7005L51.4514 17.6624L51.5288 17.623L51.685 17.5456C51.723 17.5849 51.8018 17.5849 51.8398 17.623C51.8792 17.6624 51.9173 17.6624 51.996 17.7005H52.0341C52.0341 17.7005 52.0734 17.7005 52.0734 17.7398H52.1128H52.1509H52.1902C52.1902 17.7398 52.2283 17.7398 52.2283 17.7792C52.307 17.7792 52.3845 17.7398 52.4619 17.7398C52.5394 17.7398 52.5787 17.7005 52.6562 17.7005C52.6955 17.7005 52.6955 17.7005 52.7349 17.7005C52.773 17.7005 52.773 17.7005 52.8123 17.7005H53.0459C53.0459 17.7005 53.0459 17.7005 53.084 17.7005C53.084 17.7005 53.1234 17.7005 53.1615 17.6624C53.2008 17.6624 53.2008 17.6624 53.2402 17.623C53.2402 17.623 53.2783 17.623 53.2783 17.5849C53.2783 17.5849 53.3176 17.5849 53.3176 17.5456C53.357 17.5456 53.3951 17.5075 53.3951 17.5075C53.4344 17.5075 53.4344 17.4681 53.4725 17.4288C53.5119 17.3907 53.5512 17.3907 53.5893 17.3513L53.6287 17.3132V17.2739C53.6287 17.2739 53.6287 17.2358 53.668 17.2358V17.1964C53.668 17.1964 53.668 17.1964 53.668 17.1571V17.119L53.6287 17.0416L53.5893 17.0022L53.5119 16.8854L53.4344 16.7699L53.2783 16.6137L53.0459 16.4207C52.9672 16.342 52.8898 16.3039 52.8123 16.2265C52.7349 16.1491 52.6562 16.1097 52.5787 16.0323L52.1509 15.838ZM12.181 14.4021C12.1416 14.3247 12.0641 14.2472 12.0248 14.1685L11.9854 14.0911C11.9473 14.0136 11.8699 13.9362 11.8305 13.8587C11.7912 13.7813 11.7531 13.7039 11.7137 13.5871C11.7137 13.5871 11.7137 13.5477 11.7531 13.5477C11.7531 13.5477 11.7531 13.5096 11.7912 13.5096L11.8305 13.4322L11.9473 13.3535L12.181 13.276H12.492C12.5301 13.276 12.5694 13.276 12.6075 13.3154L12.6469 13.3535L12.6862 13.3928L12.7243 13.4322L12.7637 13.4703L12.9186 13.6251L12.9579 13.7039L12.9973 13.7813L13.1141 13.9362L13.2296 14.0911L13.8136 15.2172L13.9685 15.3721L14.0472 15.4114H14.1247L14.2021 15.3721L14.2796 15.334L14.3189 15.2946L14.3964 15.2553C14.4738 15.1397 14.5132 15.0229 14.5906 14.9061C14.6693 14.7906 14.7074 14.6738 14.7848 14.5964L14.8242 14.557C14.8636 14.5189 14.9016 14.4796 14.941 14.4402L14.9804 14.4021L15.0184 14.3628L15.2127 14.2853H15.4069L15.4463 14.3247L15.4856 14.3628L15.5237 14.4021C15.5237 14.4021 15.5237 14.4021 15.5237 14.4402C15.5237 14.4402 15.5237 14.4402 15.5237 14.4796V14.5189V14.557V14.5964V14.6345L15.4856 14.7119L15.4463 14.7906L15.4069 14.8681L15.5631 14.9455L15.5237 15.0229L15.4856 15.1004L15.4463 15.1397L15.3688 15.2553L15.2914 15.334C15.252 15.3721 15.252 15.3721 15.2127 15.3721C15.2127 15.4114 15.1746 15.4114 15.1746 15.4495L15.0184 15.5663L14.9804 15.6438L14.9016 15.7986H14.8636L14.8242 15.8774V16.342L14.8636 16.3814L14.9016 16.4207L14.941 16.4588L15.0959 16.6137C15.2127 16.7305 15.2914 16.8854 15.4069 17.0022C15.4856 17.0796 15.5237 17.1571 15.6024 17.2739C15.6405 17.3132 15.6799 17.3513 15.7192 17.3907C15.7573 17.4288 15.7967 17.4681 15.8348 17.5075L15.9135 17.5456L15.9909 17.5849H16.2245L16.302 17.5456L16.3794 17.5075L16.4569 17.4681L16.7298 17.2358C16.8466 17.1571 16.9241 17.0796 17.0409 17.0022L17.5068 16.6531C17.7404 16.4982 17.974 16.3039 18.1289 16.1871C18.1683 16.1491 18.2076 16.1097 18.2457 16.0703C18.2851 16.0323 18.3231 15.9929 18.4019 15.9548L18.5567 15.8774L18.7129 15.7986L18.9071 15.7212C18.9452 15.7212 18.9452 15.7212 18.9846 15.7212C19.0239 15.7212 19.0239 15.7212 19.062 15.7212H19.1788H19.2182H19.2563H19.2956L19.4124 15.7986L19.4518 15.838L19.4899 15.8774L19.5292 15.9155V16.3814L19.4124 16.4982L19.3731 16.5363L19.335 16.5756L19.062 16.7699L18.9452 16.808L18.5961 16.9248L18.4793 16.9641C18.4399 17.0022 18.4019 17.0022 18.3625 17.0416H18.2851L18.0515 17.1964L17.4294 17.7398L16.7298 18.3606L16.4188 18.7098L16.1077 19.0983L15.8348 19.4474L15.5631 19.8359L15.0184 20.689L14.9804 20.7678L14.8636 20.8452L14.7848 20.9607L14.7074 21.0394L14.5525 21.1943L14.4738 21.2337H14.4357L14.3583 21.2718H13.6968V21.155L13.7362 21.0394L13.8136 20.8833L13.8517 20.7678L13.9685 20.5735L14.0079 20.4961L14.2415 20.2244L14.4357 20.0301L14.941 19.3306L15.2127 18.7491L15.1352 18.4381L14.9016 18.1283L14.5132 17.5849C14.2415 17.2358 14.0472 16.9248 13.8136 16.6137C13.5026 16.1871 13.1522 15.7212 12.8411 15.2946L12.7243 15.1778C12.6075 15.0229 12.4526 14.8287 12.3358 14.6345C12.2584 14.557 12.219 14.4796 12.181 14.4021ZM5.065 56.4364C4.75395 56.4364 4.48227 56.4364 4.24866 56.3209C4.01506 56.2421 3.78146 56.0872 3.62657 55.9324C3.43233 55.7775 3.31553 55.5439 3.19873 55.3115C3.08193 55.0779 3.04257 54.8063 3.00448 54.5346C3.00448 54.3403 3.00448 54.1473 3.00448 53.9912C3.04257 53.8363 3.04257 53.6814 3.12129 53.5253C3.15937 53.4097 3.19873 53.2929 3.27617 53.1761C3.31553 53.0987 3.35362 53.0212 3.39297 52.9819C3.43233 52.9438 3.47042 52.9044 3.54913 52.9044C3.62657 52.8663 3.70402 52.8663 3.78146 52.8663C3.86018 52.8663 3.89826 52.8663 3.97571 52.8663C4.01506 52.8663 4.05442 52.8663 4.09251 52.8663C4.13186 52.8663 4.13186 52.9044 4.17122 52.9044C4.17122 52.9044 4.20931 52.9438 4.20931 52.9819C4.20931 53.0212 4.20931 53.0987 4.13186 53.1761C4.09251 53.2536 4.01506 53.3704 3.97571 53.4872C3.93762 53.604 3.86018 53.7589 3.82082 53.9531C3.78146 54.108 3.74338 54.3403 3.78146 54.5346C3.78146 54.6907 3.82082 54.8456 3.89826 55.0005C3.97571 55.1554 4.05442 55.2722 4.13186 55.3496C4.24867 55.4271 4.36547 55.5058 4.48227 55.5439C4.5978 55.5832 4.75395 55.6213 4.9482 55.5832C5.14244 55.5832 5.2986 55.5058 5.4154 55.4271C5.53093 55.3496 5.64773 55.2341 5.72645 55.1173C5.80389 55.0005 5.88133 54.8456 5.95878 54.6907C6.03749 54.5346 6.11494 54.3403 6.15302 54.1854C6.23174 54.0305 6.30918 53.8363 6.38662 53.6814C6.46407 53.5253 6.58087 53.3704 6.69767 53.2536C6.81447 53.138 6.97063 53.0212 7.16487 52.9044C7.35912 52.827 7.55336 52.7495 7.82505 52.7495C8.09801 52.7495 8.33161 52.7495 8.56394 52.827C8.79754 52.9044 8.9537 53.0212 9.10859 53.1761C9.26474 53.3323 9.38027 53.5253 9.45899 53.7195C9.53643 53.9531 9.61388 54.1854 9.61388 54.419C9.61388 54.5346 9.61388 54.6907 9.61388 54.8063C9.61388 54.923 9.57579 55.0779 9.53643 55.1947C9.49708 55.3115 9.45899 55.4271 9.41963 55.5058C9.38027 55.5832 9.34219 55.6607 9.30283 55.6988C9.26474 55.7381 9.26474 55.7381 9.22539 55.7775C9.22539 55.7775 9.18603 55.8156 9.14794 55.8156C9.10859 55.8156 9.06923 55.8156 9.03114 55.8549C8.99179 55.8549 8.9537 55.8549 8.87498 55.8549C8.79754 55.8549 8.75818 55.8549 8.7201 55.8549C8.68074 55.8549 8.64265 55.8549 8.6033 55.8549C8.56394 55.8549 8.56394 55.8156 8.52585 55.8156L8.4865 55.7775C8.4865 55.7381 8.4865 55.6988 8.52585 55.6213C8.56394 55.5439 8.6033 55.4664 8.68074 55.3496C8.7201 55.2341 8.75818 55.1173 8.79754 54.9624C8.8369 54.8063 8.8369 54.6514 8.8369 54.4965C8.8369 54.3403 8.79754 54.1854 8.7201 54.0686C8.68074 53.9531 8.6033 53.8757 8.52585 53.7969C8.44714 53.7195 8.33161 53.6814 8.21481 53.6421C8.09801 53.604 7.98121 53.604 7.86441 53.604C7.67016 53.604 7.55336 53.6814 7.39847 53.7589C7.28167 53.8363 7.16487 53.9531 7.08616 54.0686C7.00871 54.1854 6.93127 54.3403 6.85383 54.4965C6.77511 54.6514 6.69767 54.8456 6.65958 55.0005C6.58087 55.1554 6.50342 55.3496 6.42598 55.5058C6.34854 55.6607 6.23174 55.8156 6.11494 55.9704C5.99814 56.0872 5.84198 56.204 5.64773 56.3209C5.53093 56.3589 5.2986 56.3983 5.065 56.4364ZM35.4319 0.00263447C54.2508 0.274323 69.2203 15.4495 69.7256 34.1973C69.8817 40.4461 69.7256 46.695 69.7256 52.9819C69.2596 71.8845 55.2232 87.565 35.7823 87.9916C15.0578 88.4194 0.982056 72.4673 0.205078 52.323V34.1579C0.748455 15.1004 16.1458 -0.230967 35.4319 0.00263447Z" fill="#00447D"/>
</svg>
