<?xml version="1.0" encoding="UTF-8"?>
<svg version="1.1" xmlns="http://www.w3.org/2000/svg" width="2560" height="1440">
<path d="M0 0 C844.8 0 1689.6 0 2560 0 C2560 475.2 2560 950.4 2560 1440 C1715.2 1440 870.4 1440 0 1440 C0 964.8 0 489.6 0 0 Z " fill="#FEFEFE" transform="translate(0,0)"/>
<path d="M0 0 C17.82 0 35.64 0 54 0 C53.34 1.65 52.68 3.3 52 5 C133.84 5 215.68 5 300 5 C298.7872393 8.6382821 297.66331526 11.94707625 296.1171875 15.3984375 C295.75826416 16.20015381 295.39934082 17.00187012 295.02954102 17.82788086 C294.64854248 18.66843018 294.26754395 19.50897949 293.875 20.375 C293.28319946 21.68706421 293.28319946 21.68706421 292.67944336 23.02563477 C289.78720598 29.38832595 286.75111092 35.66623048 283.56396484 41.88623047 C281.86738062 45.20409361 280.3167963 48.51280578 279 52 C280.98 52.33 282.96 52.66 285 53 C283.41930816 58.21430462 281.21457789 62.98391526 278.859375 67.87890625 C278.45471008 68.72742661 278.05004517 69.57594696 277.63311768 70.45018005 C276.3420273 73.15586921 275.04622026 75.85926523 273.75 78.5625 C272.05596503 82.10483553 270.36375126 85.64803926 268.671875 89.19140625 C268.26006989 90.05322006 267.84826477 90.91503387 267.42398071 91.80296326 C264.73477094 97.43780308 262.09140956 103.09164317 259.48828125 108.7668457 C257.71970155 112.60892263 255.92826999 116.43995763 254.1328125 120.26953125 C253.69353928 121.20649338 253.69353928 121.20649338 253.24539185 122.16238403 C252.20559569 124.37924626 251.16526898 126.59585961 250.125 128.8125 C247.77375 133.824375 245.4225 138.83625 243 144 C231.12 144 219.24 144 207 144 C211.44444444 132.88888889 211.44444444 132.88888889 214 128.5 C216.293953 124.40284016 218.12432889 120.35112567 219.7890625 115.96875 C222.55675641 109.1834359 225.84078168 102.60982086 229 96 C227.02 96 225.04 96 223 96 C223.63775457 91.85723459 225.01489563 88.50184559 226.80859375 84.72265625 C227.09085312 84.12336807 227.37311249 83.5240799 227.66392517 82.90663147 C228.58357359 80.95624112 229.51056125 79.00943455 230.4375 77.0625 C231.72237895 74.34354359 233.00362573 71.62287963 234.28515625 68.90234375 C234.76408325 67.88775085 234.76408325 67.88775085 235.25268555 66.85266113 C238.02474291 60.97226987 240.71053092 55.05487005 243.375 49.125 C247.35384105 40.29641277 251.58092488 31.61596211 256 23 C254.09272714 22.99207365 254.09272714 22.99207365 252 24 C250.64042976 26.21466635 249.57826963 28.26271558 248.53125 30.62109375 C248.21417587 31.30416092 247.89710175 31.98722809 247.57041931 32.69099426 C246.53324456 34.93380355 245.51674864 37.1853669 244.5 39.4375 C243.78660019 40.98923392 243.07182721 42.54033724 242.35571289 44.09082031 C240.55852181 47.98966421 238.77716816 51.89550781 237.00030518 55.8036499 C234.49935668 61.29493257 231.96481287 66.77081838 229.4375 72.25 C228.69874634 73.85790405 228.69874634 73.85790405 227.94506836 75.49829102 C225.56439719 80.66888149 223.14333538 85.80145533 220.5625 90.875 C216.31236122 99.23189938 212.43809333 107.7640376 208.5043335 116.27316284 C208.22059875 116.88684723 207.93686401 117.50053162 207.64453125 118.1328125 C207.35580139 118.75737335 207.06707153 119.3819342 206.76959229 120.02542114 C200.90071295 132.70881253 194.93727763 145.34860467 189 158 C177.12 158 165.24 158 153 158 C158.61580536 144.52206714 158.61580536 144.52206714 161.0859375 139.484375 C161.62065674 138.38649658 162.15537598 137.28861816 162.70629883 136.1574707 C163.25697021 135.03300537 163.8076416 133.90854004 164.375 132.75 C168.28423233 124.70891639 172.10689173 116.66335915 175.61108398 108.43798828 C177.85084591 103.22507262 180.37524018 98.18964996 182.95043945 93.13793945 C185.46843438 88.16073312 187.76750338 83.11095512 190 78 C192.70246352 71.82219451 195.56680738 65.77406245 198.63525391 59.77075195 C202.85908866 51.42832071 206.71279446 42.90608326 210.6081543 34.40673828 C211.14738525 33.23481934 211.68661621 32.06290039 212.2421875 30.85546875 C212.7254248 29.79996826 213.20866211 28.74446777 213.70654297 27.65698242 C215 25 215 25 217 22 C204.79 22 192.58 22 180 22 C179.67 23.32 179.34 24.64 179 26 C178.08047201 28.05753851 177.11791012 30.0960338 176.12890625 32.12109375 C175.55462891 33.30380859 174.98035156 34.48652344 174.38867188 35.70507812 C173.78019538 36.9493398 173.17146909 38.19347934 172.5625 39.4375 C171.37404365 41.87261113 170.18856149 44.30912659 169.00390625 46.74609375 C168.47611572 47.82560303 167.9483252 48.9051123 167.40454102 50.01733398 C166.17213111 52.63446449 165.07435345 55.31411636 164 58 C168.62 58 173.24 58 178 58 C177.01 60.97 177.01 60.97 176 64 C175.51466797 65.57201172 175.51466797 65.57201172 175.01953125 67.17578125 C173.67164111 70.67855078 172.51369503 73.1910869 170 76 C164.56697972 77.45070175 160.82044404 77.20422611 155 77 C151.7 83.93 148.4 90.86 145 98 C153.58 98 162.16 98 171 98 C169.40753408 104.36986369 165.93636207 110.12727585 163 116 C94.69 116 26.38 116 -44 116 C-42.00938598 109.03285091 -39.54015359 104.23374872 -36 98 C-28.08 98 -20.16 98 -12 98 C-11.34 96.02 -10.68 94.04 -10 92 C-9.45053778 90.69961636 -8.87776843 89.40862224 -8.2734375 88.1328125 C-7.99419434 87.53871582 -7.71495117 86.94461914 -7.42724609 86.33251953 C-7.08000488 85.60403809 -6.73276367 84.87555664 -6.375 84.125 C-5.26125 81.77375 -4.1475 79.4225 -3 77 C-8.94 76.67 -14.88 76.34 -21 76 C-19.62644745 69.13223724 -16.40086172 64.1215511 -13 58 C-6.4 58 0.2 58 7 58 C7.99 55.03 8.98 52.06 10 49 C10.69289213 47.34057625 11.41627309 45.69295087 12.19140625 44.0703125 C12.57876953 43.255625 12.96613281 42.4409375 13.36523438 41.6015625 C13.76033203 40.78429687 14.15542969 39.96703125 14.5625 39.125 C15.16094727 37.86429688 15.16094727 37.86429688 15.77148438 36.578125 C17.37658308 33.22322753 18.93226937 30.10159594 21 27 C10.11 27 -0.78 27 -12 27 C-8.62509189 16.87527567 -8.62509189 16.87527567 -6.9921875 13.69140625 C-6.47205078 12.66563477 -6.47205078 12.66563477 -5.94140625 11.61914062 C-5.41353516 10.60110352 -5.41353516 10.60110352 -4.875 9.5625 C-4.51535156 8.85673828 -4.15570312 8.15097656 -3.78515625 7.42382812 C-2.8617532 5.61333562 -1.93139052 3.80639642 -1 2 C-0.67 1.34 -0.34 0.68 0 0 Z " fill="#020202" transform="translate(942,641)"/>
<path d="M0 0 C11.88 0 23.76 0 36 0 C34.66652929 3.33367677 33.31125091 6.59651584 31.8359375 9.86328125 C31.43632813 10.74951172 31.03671875 11.63574219 30.625 12.54882812 C30.2125 13.46083984 29.8 14.37285156 29.375 15.3125 C28.95476562 16.24384766 28.53453125 17.17519531 28.1015625 18.13476562 C27.06865133 20.42360288 26.03445259 22.71185899 25 25 C29.95 24.67 34.9 24.34 40 24 C41.04800781 21.77830078 41.04800781 21.77830078 42.1171875 19.51171875 C43.03633501 17.57025411 43.95561261 15.62885106 44.875 13.6875 C45.33519531 12.71103516 45.79539062 11.73457031 46.26953125 10.72851562 C46.71425781 9.79072266 47.15898438 8.85292969 47.6171875 7.88671875 C48.02565918 7.02264404 48.43413086 6.15856934 48.85498047 5.26831055 C50 3 50 3 52 0 C54.76628915 -0.2667616 57.30619631 -0.34804189 60.0703125 -0.29296875 C61.26465408 -0.28660149 61.26465408 -0.28660149 62.48312378 -0.28010559 C65.03075729 -0.26328834 67.57760489 -0.22563179 70.125 -0.1875 C71.85024901 -0.17245705 73.57551039 -0.15876796 75.30078125 -0.14648438 C79.53415782 -0.11337501 83.76694559 -0.06157285 88 0 C86.64000887 4.19570183 85.08763073 8.01606365 83.0625 11.9375 C80.83787613 16.25588751 78.92449433 20.50951324 77 25 C86.9 25 96.8 25 107 25 C104.36 30.94 101.72 36.88 99 43 C90.42 43 81.84 43 73 43 C72.01 45.97 72.01 45.97 71 49 C70.01 51.31 69.02 53.62 68 56 C75.59 56 83.18 56 91 56 C89.71532445 62.42337775 87.00559328 67.18065982 84 73 C71.625 73.495 71.625 73.495 59 74 C57.68 76.64 56.36 79.28 55 82 C68.86 82.495 68.86 82.495 83 83 C81 89 81 89 75 101 C65.1 101 55.2 101 45 101 C44.34 102.98 43.68 104.96 43 107 C42.01 108.98 42.01 108.98 41 111 C54.86 111 68.72 111 83 111 C81 117 81 117 75 129 C34.74 129 -5.52 129 -47 129 C-46.22809022 125.14045109 -45.61976495 122.85921501 -43.94970703 119.48291016 C-43.52480988 118.61654938 -43.09991272 117.7501886 -42.66213989 116.85757446 C-42.19871185 115.92746552 -41.73528381 114.99735657 -41.2578125 114.0390625 C-40.77480682 113.05747162 -40.29180115 112.07588074 -39.79415894 111.06454468 C-38.24326164 107.91528729 -36.68447325 104.77001819 -35.125 101.625 C-33.10457563 97.53493579 -31.08719985 93.44337186 -29.0703125 89.3515625 C-28.3175705 87.82574554 -28.3175705 87.82574554 -27.54962158 86.269104 C-24.00945124 79.08209659 -20.5137676 71.87481645 -17.0546875 64.6484375 C-16.61883331 63.73889313 -16.18297913 62.82934875 -15.73391724 61.89224243 C-12.74532973 55.62891303 -9.85717242 49.32436042 -7 43 C-10.96 43 -14.92 43 -19 43 C-18.10134702 38.50673512 -16.97325284 35.54100056 -14.98046875 31.484375 C-14.68062576 30.8691095 -14.38078278 30.25384399 -14.07185364 29.61993408 C-13.11581987 27.66058342 -12.15204794 25.70517127 -11.1875 23.75 C-10.23513536 21.80842688 -9.28446264 19.86604392 -8.33528137 17.9229126 C-7.46771136 16.14860586 -6.59568443 14.3764804 -5.72338867 12.60449219 C-3.73296904 8.4415009 -1.87406683 4.21665037 0 0 Z " fill="#030303" transform="translate(1411,646)"/>
<path d="M0 0 C33.33 0 66.66 0 101 0 C99.53889414 4.38331758 98.07242903 8.12633257 96.05859375 12.2265625 C95.63315781 13.09834892 95.63315781 13.09834892 95.1991272 13.98774719 C94.59417257 15.22731189 93.98773153 16.46615212 93.37991333 17.70431519 C88.79390009 27.0508362 84.28021653 36.4177533 80.0625 45.9375 C77.15421092 52.50070334 74.07151065 58.91518281 70.8125 65.3125 C68.14382529 70.64984941 65.77633667 76.12797071 63.35351562 81.57983398 C60.51660058 87.9329856 57.49128539 94.15932635 54.3125 100.34765625 C52.92221762 103.00446465 52.92221762 103.00446465 52 106 C32.53 106 13.06 106 -7 106 C-7.66 107.98 -8.32 109.96 -9 112 C-9.7517894 113.70530219 -10.53452914 115.39729682 -11.34765625 117.07421875 C-11.78787109 117.98880859 -12.22808594 118.90339844 -12.68164062 119.84570312 C-13.13732422 120.78349609 -13.59300781 121.72128906 -14.0625 122.6875 C-14.97161221 124.56565188 -15.87923254 126.44452683 -16.78515625 128.32421875 C-17.18613525 129.15010498 -17.58711426 129.97599121 -18.00024414 130.8269043 C-19.09420798 133.1005907 -19.09420798 133.1005907 -20 136 C-13.73 136 -7.46 136 -1 136 C-3 143 -3 143 -7 153 C-25.81 153 -44.62 153 -64 153 C-62.67091264 149.01273792 -61.38570945 145.46102075 -59.64453125 141.69140625 C-59.19053955 140.70470947 -58.73654785 139.7180127 -58.26879883 138.70141602 C-57.78822021 137.66557373 -57.3076416 136.62973145 -56.8125 135.5625 C-56.31709717 134.48863037 -55.82169434 133.41476074 -55.3112793 132.30834961 C-53.87778463 129.20388446 -52.43984405 126.10152454 -51 123 C-50.64679688 122.23816406 -50.29359375 121.47632813 -49.9296875 120.69140625 C-47.96451998 116.45556196 -45.98402509 112.22703713 -44 108 C-43.34749716 106.60163673 -42.69516076 105.20319577 -42.04296875 103.8046875 C-39.04521033 97.38977272 -36.02380615 90.99910418 -32.8125 84.6875 C-27.86023874 74.86140695 -23.32137639 64.8377387 -18.70539856 54.85070801 C-15.54261432 48.00792172 -12.37145407 41.16905771 -9.19046021 34.3347168 C-8.56481084 32.9894194 -7.94003066 31.64371743 -7.31613159 30.29760742 C-6.44713641 28.42272476 -5.5754576 26.54911291 -4.703125 24.67578125 C-4.20458008 23.60239502 -3.70603516 22.52900879 -3.19238281 21.4230957 C-2 19 -2 19 -1 18 C-0.67 12.06 -0.34 6.12 0 0 Z " fill="#020202" transform="translate(1250,646)"/>
<path d="M0 0 C15.51 0 31.02 0 47 0 C44.94854695 6.15435915 42.87962453 11.69101129 40.0234375 17.4296875 C39.65272125 18.18669952 39.282005 18.94371155 38.90005493 19.72366333 C37.73034651 22.11009541 36.55310193 24.49270201 35.375 26.875 C34.1911091 29.2793573 33.00884356 31.68449531 31.82852173 34.09060669 C31.09747461 35.57979006 30.36414652 37.06785641 29.62826538 38.55465698 C28.25411006 41.3456235 26.98513675 44.04458975 26 47 C27.32 47 28.64 47 30 47 C29.05705721 51.17539875 27.28415455 54.84745131 25.4375 58.6875 C25.0861499 59.42701904 24.7347998 60.16653809 24.37280273 60.9284668 C22.87276676 64.08543791 21.36420381 67.2383133 19.85644531 70.39160156 C18.75551641 72.69717695 17.65891441 75.00477521 16.5625 77.3125 C16.22081787 78.02301514 15.87913574 78.73353027 15.52709961 79.46557617 C14.00826789 82.66342136 12.86313001 85.54747995 12 89 C127.83 88.505 127.83 88.505 246 88 C258.77043146 61.12317305 258.77043146 61.12317305 271 34 C272.65 31.03 274.3 28.06 276 25 C287.55 25 299.1 25 311 25 C307.62803048 35.11590857 307.62803048 35.11590857 305.7578125 38.92578125 C305.33749756 39.79154785 304.91718262 40.65731445 304.48413086 41.54931641 C304.03561768 42.46116699 303.58710449 43.37301758 303.125 44.3125 C302.14826472 46.32610818 301.17307765 48.34046787 300.19921875 50.35546875 C299.42650635 51.95334229 299.42650635 51.95334229 298.63818359 53.58349609 C295.9830223 59.1209517 293.38952223 64.68674852 290.80438232 70.25717163 C290.23005641 71.4946432 289.65507277 72.73180973 289.07940674 73.96865845 C288.26890807 75.71018953 287.46058645 77.45273328 286.65234375 79.1953125 C286.18820068 80.19578613 285.72405762 81.19625977 285.24584961 82.22705078 C284.09514184 84.78823809 283.04279524 87.39301191 282 90 C287.61 90 293.22 90 299 90 C297 97 297 97 292 107 C184.75 107 77.5 107 -33 107 C-31.56435463 102.69306389 -30.1382728 98.99698141 -28.171875 94.96484375 C-27.61886719 93.82466797 -27.06585937 92.68449219 -26.49609375 91.50976562 C-25.91988281 90.33091797 -25.34367187 89.15207031 -24.75 87.9375 C-20.39943163 79.00133255 -16.12964283 70.04039204 -12 61 C-13.32 61 -14.64 61 -16 61 C-15.38371566 57.12596206 -14.20995782 54.01764404 -12.48828125 50.5 C-11.98006836 49.45320068 -11.47185547 48.40640137 -10.94824219 47.32788086 C-10.40844727 46.22968018 -9.86865234 45.13147949 -9.3125 44 C-8.21934521 41.75164563 -7.12689049 39.50295074 -6.03515625 37.25390625 C-5.51066895 36.17641113 -4.98618164 35.09891602 -4.44580078 33.98876953 C-1.88478351 28.69461665 0.56128415 23.35162644 3 18 C-0.63 18 -4.26 18 -8 18 C-6 12 -6 12 0 0 Z " fill="#050505" transform="translate(1341,692)"/>
<path d="M0 0 C11.55 0 23.1 0 35 0 C33 6 33 6 30 13 C45.84 13 61.68 13 78 13 C75.32862316 17.00706525 72.64579345 20.92668854 69.8125 24.8125 C69.11769531 25.76769531 68.42289063 26.72289062 67.70703125 27.70703125 C66 30 66 30 65 31 C63.58774954 31.0928726 62.17091066 31.11746772 60.75561523 31.11352539 C59.85475693 31.11344986 58.95389862 31.11337433 58.02574158 31.11329651 C57.04658279 31.10813522 56.06742401 31.10297394 55.05859375 31.09765625 C54.06118668 31.0962413 53.0637796 31.09482635 52.03614807 31.09336853 C48.83656876 31.08775114 45.63705831 31.07519571 42.4375 31.0625 C40.27408955 31.05748724 38.11067801 31.05292395 35.94726562 31.04882812 C30.63148675 31.03777607 25.31574829 31.02102104 20 31 C19.78150391 32.17260376 19.78150391 32.17260376 19.55859375 33.36889648 C19.01390433 35.93450745 18.24023142 37.76898381 17 40.0625 C15.50075703 42.84602096 14.7924657 44.83013721 14 48 C31.49 48 48.98 48 67 48 C65 54 65 54 59 66 C44.15 66.33 29.3 66.66 14 67 C2.12410498 91.32959298 2.12410498 91.32959298 -9.07128906 115.97485352 C-10.31282616 118.68214853 -11.66801947 121.33603894 -13 124 C-24.88 124 -36.76 124 -49 124 C-46.63801957 118.09504893 -44.37962875 112.50506882 -41.609375 106.83984375 C-41.3010675 106.20623428 -40.99276001 105.57262482 -40.67510986 104.91981506 C-39.70335429 102.92408912 -38.72697502 100.93067522 -37.75 98.9375 C-32.40610532 88.00036523 -27.18390188 77.01579149 -22 66 C-43.12 66 -64.24 66 -86 66 C-84.39601012 61.9900253 -82.69340844 58.1010312 -80.875 54.1875 C-80.33617187 53.02605469 -79.79734375 51.86460937 -79.2421875 50.66796875 C-78.83226562 49.78753906 -78.42234375 48.90710938 -78 48 C-74.37 48 -70.74 48 -67 48 C-66.7417041 47.16645996 -66.4834082 46.33291992 -66.21728516 45.47412109 C-64.88280362 41.66552258 -63.25253625 38.05391974 -61.5234375 34.4140625 C-61.23057861 33.79104248 -60.93771973 33.16802246 -60.63598633 32.52612305 C-59.5526596 30.2240187 -58.46349453 27.92466539 -57.375 25.625 C-53.724375 17.890625 -53.724375 17.890625 -50 10 C-38.12 10 -26.24 10 -14 10 C-15.71775827 14.29439568 -17.55676889 18.50219348 -19.4765625 22.70703125 C-19.80667328 23.43242599 -20.13678406 24.15782074 -20.47689819 24.90519714 C-21.52519979 27.20811848 -22.57507603 29.51031794 -23.625 31.8125 C-24.33864596 33.3795098 -25.05218874 34.94656659 -25.765625 36.51367188 C-27.50922267 40.34299298 -29.25423233 44.17166773 -31 48 C-28.03 48 -25.06 48 -22 48 C-21.89510254 47.30575928 -21.79020508 46.61151855 -21.68212891 45.89624023 C-20.88961417 42.53131458 -19.6025767 39.76742259 -18.0859375 36.66015625 C-17.79320953 36.05674911 -17.50048157 35.45334198 -17.19888306 34.83164978 C-16.26295106 32.90593335 -15.31905703 30.98424398 -14.375 29.0625 C-13.76381182 27.80688928 -13.15313058 26.55103167 -12.54296875 25.29492188 C-8.42268544 16.83224358 -4.20968726 8.41937453 0 0 Z " fill="#030303" transform="translate(1596,646)"/>
<path d="M0 0 C0.93487747 0.01110306 1.86975494 0.02220612 2.83296204 0.03364563 C3.8938353 0.03402328 4.95470856 0.03440094 6.04772949 0.03479004 C7.19155594 0.06059647 8.33538239 0.08640289 9.51387024 0.11299133 C11.27208855 0.12360344 11.27208855 0.12360344 13.06582642 0.13442993 C16.81607921 0.16245779 20.56484862 0.2252166 24.31465149 0.28877258 C26.8543435 0.31384438 29.39405887 0.33665948 31.93379211 0.35713196 C38.16541953 0.41231219 44.39617956 0.49602371 50.62715149 0.60127258 C50.04036818 4.12197243 49.27065228 6.31427101 47.62715149 9.60127258 C60.49715149 9.60127258 73.36715149 9.60127258 86.62715149 9.60127258 C87.94715149 6.63127258 89.26715149 3.66127258 90.62715149 0.60127258 C108.44715149 0.60127258 126.26715149 0.60127258 144.62715149 0.60127258 C141.98350081 8.53222461 138.1867966 16.03702672 134.62715149 23.60127258 C118.78715149 23.60127258 102.94715149 23.60127258 86.62715149 23.60127258 C85.96715149 25.58127258 85.30715149 27.56127258 84.62715149 29.60127258 C83.96715149 30.92127258 83.30715149 32.24127258 82.62715149 33.60127258 C65.13715149 33.60127258 47.64715149 33.60127258 29.62715149 33.60127258 C30.62715149 27.60127258 30.62715149 27.60127258 32.62715149 23.60127258 C18.76715149 23.93127258 4.90715149 24.26127258 -9.37284851 24.60127258 C-11.02284851 27.90127258 -12.67284851 31.20127258 -14.37284851 34.60127258 C-32.19284851 34.60127258 -50.01284851 34.60127258 -68.37284851 34.60127258 C-62.37284851 20.60127258 -62.37284851 20.60127258 -57.37284851 11.60127258 C-40.87284851 11.60127258 -24.37284851 11.60127258 -7.37284851 11.60127258 C-6.71284851 9.62127258 -6.05284851 7.64127258 -5.37284851 5.60127258 C-3.17771916 0.80522435 -3.17771916 0.80522435 0 0 Z " fill="#030303" transform="translate(954.3728485107422,764.3987274169922)"/>
<path d="M0 0 C11.22 0 22.44 0 34 0 C38 8 38 8 38 11 C38.66 11 39.32 11 40 11 C40.103125 10.29875 40.20625 9.5975 40.3125 8.875 C41 6 41 6 44 0 C52.25 0 60.5 0 69 0 C67.0094197 5.97174089 65.01941634 11.45087594 62.3125 17.0625 C61.99216797 17.73732422 61.67183594 18.41214844 61.34179688 19.10742188 C60.56580539 20.74047859 59.78358474 22.37057311 59 24 C54.38 24 49.76 24 45 24 C45.5053125 25.05960938 46.010625 26.11921875 46.53125 27.2109375 C47.18770131 28.59886314 47.84394033 29.98688919 48.5 31.375 C48.83386719 32.07367187 49.16773438 32.77234375 49.51171875 33.4921875 C52 38.7734375 52 38.7734375 52 41 C40.78 41 29.56 41 18 41 C15.43300228 35.48401085 12.86832789 29.96706467 10.30957031 24.44726562 C9.43789036 22.56870106 8.56484731 20.69076838 7.69042969 18.81347656 C6.43588556 16.11947818 5.18621494 13.42326678 3.9375 10.7265625 C3.54377197 9.88380768 3.15004395 9.04105286 2.74438477 8.17276001 C2.38401123 7.39210175 2.0236377 6.61144348 1.65234375 5.80712891 C1.33257568 5.11873932 1.01280762 4.43034973 0.68334961 3.72109985 C0 2 0 2 0 0 Z " fill="#060606" transform="translate(1246,758)"/>
<path d="M0 0 C11.88 0 23.76 0 36 0 C34.47053379 3.82366553 32.86727689 7.52998592 31.13671875 11.26171875 C30.86285843 11.85241653 30.58899811 12.44311432 30.30683899 13.05171204 C29.72840754 14.29836924 29.14930901 15.54471712 28.56958008 16.79077148 C27.69861532 18.66359882 26.83060613 20.5377748 25.96289062 22.41210938 C25.39601275 23.63289583 24.82896071 24.85360142 24.26171875 26.07421875 C23.50314575 27.70750122 23.50314575 27.70750122 22.72924805 29.3737793 C20.54876582 33.94623482 18.26547356 38.46905288 16 43 C4.45 43 -7.1 43 -19 43 C-18.10134702 38.50673512 -16.97325284 35.54100056 -14.98046875 31.484375 C-14.68062576 30.8691095 -14.38078278 30.25384399 -14.07185364 29.61993408 C-13.11581987 27.66058342 -12.15204794 25.70517127 -11.1875 23.75 C-10.23513536 21.80842688 -9.28446264 19.86604392 -8.33528137 17.9229126 C-7.46771136 16.14860586 -6.59568443 14.3764804 -5.72338867 12.60449219 C-3.73296904 8.4415009 -1.87406683 4.21665037 0 0 Z " fill="#050505" transform="translate(1367,646)"/>
<path d="M0 0 C11.88 0 23.76 0 36 0 C34.64964506 4.05106481 33.35919308 7.5683565 31.5625 11.375 C31.04558594 12.47972656 30.52867188 13.58445312 29.99609375 14.72265625 C29.69300293 15.36992676 29.38991211 16.01719727 29.07763672 16.68408203 C26.73625526 21.71587735 24.43499535 26.76624197 22.125 31.8125 C20.43375 35.504375 18.7425 39.19625 17 43 C5.12 43 -6.76 43 -19 43 C-17.48238358 38.44715075 -15.88126251 34.40932513 -13.84765625 30.09765625 C-13.39645668 29.13647133 -13.39645668 29.13647133 -12.93614197 28.15586853 C-11.98139418 26.12325403 -11.02220246 24.09277918 -10.0625 22.0625 C-9.10712685 20.03544529 -8.15273406 18.00793741 -7.1995697 15.97984314 C-6.33294559 14.13679004 -5.46355033 12.2950407 -4.59399414 10.45336914 C-2.99890755 6.99763321 -1.49929701 3.49835969 0 0 Z " fill="#050505" transform="translate(1524,722)"/>
<path d="M0 0 C0.91644287 0.00523682 1.83288574 0.01047363 2.77709961 0.01586914 C4.26113281 0.02070312 4.26113281 0.02070312 5.77514648 0.02563477 C6.81606445 0.03401367 7.85698242 0.04239258 8.92944336 0.05102539 C10.49662109 0.05779297 10.49662109 0.05779297 12.09545898 0.06469727 C14.68600996 0.07652627 17.27644895 0.0930085 19.86694336 0.11352539 C18.06753863 6.0487347 15.40030945 11.45075879 12.70092773 17.01196289 C12.35223633 17.73899414 12.00354492 18.46602539 11.64428711 19.21508789 C11.32709717 19.86815918 11.00990723 20.52123047 10.68310547 21.1940918 C9.68235663 23.40866903 9.68235663 23.40866903 8.86694336 27.11352539 C1.27694336 27.11352539 -6.31305664 27.11352539 -14.13305664 27.11352539 C-13.33708351 23.13365974 -12.58746211 20.61165196 -10.88305664 17.06665039 C-10.43961914 16.13981445 -9.99618164 15.21297852 -9.53930664 14.25805664 C-9.07524414 13.30286133 -8.61118164 12.34766602 -8.13305664 11.36352539 C-7.43696289 9.9075293 -7.43696289 9.9075293 -6.72680664 8.42211914 C-2.74505622 0.14609719 -2.74505622 0.14609719 0 0 Z " fill="#F6F6F6" transform="translate(1266.133056640625,707.886474609375)"/>
<path d="M0 0 C0.91644287 0.00523682 1.83288574 0.01047363 2.77709961 0.01586914 C4.26113281 0.02070312 4.26113281 0.02070312 5.77514648 0.02563477 C6.81606445 0.03401367 7.85698242 0.04239258 8.92944336 0.05102539 C10.49662109 0.05779297 10.49662109 0.05779297 12.09545898 0.06469727 C14.68600996 0.07652627 17.27644895 0.0930085 19.86694336 0.11352539 C17.93486001 6.35819593 15.57622764 12.22693495 12.74194336 18.11352539 C12.38229492 18.87536133 12.02264648 19.63719727 11.65209961 20.42211914 C9.01275012 25.96771863 9.01275012 25.96771863 7.86694336 27.11352539 C6.23221454 27.20052881 4.59380281 27.22053602 2.95678711 27.21118164 C1.96743164 27.20795898 0.97807617 27.20473633 -0.04125977 27.20141602 C-1.08217773 27.19303711 -2.1230957 27.1846582 -3.19555664 27.17602539 C-4.2403418 27.17151367 -5.28512695 27.16700195 -6.36157227 27.16235352 C-8.95212324 27.15052452 -11.54256223 27.13404228 -14.13305664 27.11352539 C-12.20097329 20.86885485 -9.84234093 15.00011583 -7.00805664 9.11352539 C-6.6484082 8.35168945 -6.28875977 7.58985352 -5.91821289 6.80493164 C-2.7491384 0.14631445 -2.7491384 0.14631445 0 0 Z " fill="#F6F6F6" transform="translate(1287.133056640625,662.886474609375)"/>
<path d="M0 0 C1.32 0 2.64 0 4 0 C2.55365531 4.66268847 0.68389956 9.02785229 -1.4140625 13.42578125 C-1.74739594 14.13163864 -2.08072937 14.83749603 -2.42416382 15.56474304 C-3.48792842 17.81551686 -4.55633772 20.06404812 -5.625 22.3125 C-6.66643978 24.51236521 -7.70692964 26.71267559 -8.74676514 28.91329956 C-9.44116581 30.37897415 -10.13847099 31.84327619 -10.83868408 33.30618286 C-12.66657087 37.13249633 -14.43807738 40.97308394 -16.13183594 44.86083984 C-16.48079926 45.64573288 -16.82976257 46.43062592 -17.18930054 47.23930359 C-17.85564795 48.74183471 -18.50731769 50.250987 -19.14199829 51.76716614 C-20.05615234 53.80541992 -20.05615234 53.80541992 -22 57 C-24.73681641 57.96606445 -24.73681641 57.96606445 -27 58 C-25.72108885 53.9420677 -24.21948726 50.17060462 -22.34765625 46.3515625 C-21.82333008 45.27438965 -21.29900391 44.1972168 -20.75878906 43.08740234 C-19.91912598 41.37351318 -19.91912598 41.37351318 -19.0625 39.625 C-17.8899814 37.21445712 -16.71871185 34.80338648 -15.55078125 32.390625 C-15.25509247 31.779841 -14.95940369 31.16905701 -14.65475464 30.5397644 C-11.09735791 23.16560903 -7.70923867 15.71416234 -4.34008789 8.25244141 C-3.91332764 7.31062012 -3.48656738 6.36879883 -3.046875 5.3984375 C-2.67401367 4.57005371 -2.30115234 3.74166992 -1.91699219 2.88818359 C-1 1 -1 1 0 0 Z " fill="#E9E9E9" transform="translate(1194,664)"/>
<path d="M0 0 C1.65 0 3.3 0 5 0 C4.2721057 3.67273398 2.76727332 6.76641374 1.12890625 10.12109375 C0.55462891 11.30380859 -0.01964844 12.48652344 -0.61132812 13.70507812 C-1.21980462 14.9493398 -1.82853091 16.19347934 -2.4375 17.4375 C-3.62595635 19.87261113 -4.81143851 22.30912659 -5.99609375 24.74609375 C-6.78777954 26.36535767 -6.78777954 26.36535767 -7.59545898 28.01733398 C-8.83456255 30.64867906 -9.95508864 33.28674805 -11 36 C-12.65 36 -14.3 36 -16 36 C-15.35007387 31.23696993 -13.44630176 27.3398734 -11.375 23.0625 C-10.84519531 21.95273804 -10.84519531 21.95273804 -10.3046875 20.82055664 C-6.95681291 13.83709948 -3.50272149 6.90692895 0 0 Z " fill="#E5E5E5" transform="translate(1041,663)"/>
<path d="M0 0 C1.2065625 0.0309375 1.2065625 0.0309375 2.4375 0.0625 C0.85631466 4.14428813 -0.93461112 8.11331226 -2.78515625 12.078125 C-3.09069931 12.73455994 -3.39624237 13.39099487 -3.71104431 14.06732178 C-4.3532938 15.44592362 -4.99625549 16.82419388 -5.63989258 18.20214844 C-6.62777904 20.31845342 -7.61184273 22.43650836 -8.59570312 24.5546875 C-9.22112326 25.89594103 -9.84676639 27.2370906 -10.47265625 28.578125 C-10.76745377 29.21349182 -11.06225128 29.84885864 -11.36598206 30.503479 C-13.44793955 34.94793955 -13.44793955 34.94793955 -14.5625 36.0625 C-16.22867115 36.10313832 -17.89638095 36.105221 -19.5625 36.0625 C-16.35438131 27.82064812 -12.623949 19.85155028 -8.8125 11.875 C-8.31645264 10.834646 -7.82040527 9.79429199 -7.30932617 8.72241211 C-3.15565269 0.07696714 -3.15565269 0.07696714 0 0 Z " fill="#E6E6E6" transform="translate(1003.5625,662.9375)"/>
<path d="M0 0 C1.65 0 3.3 0 5 0 C2.98726474 6.33146783 0.31664066 12.3231755 -2.43041992 18.3605957 C-3.02093236 19.66730673 -3.60357004 20.97760366 -4.1784668 22.29125977 C-5.0138652 24.19887552 -5.87305303 26.09404278 -6.73828125 27.98828125 C-7.24399658 29.11790283 -7.74971191 30.24752441 -8.27075195 31.41137695 C-10 34 -10 34 -12.70385742 34.87573242 C-13.46158447 34.91674072 -14.21931152 34.95774902 -15 35 C-14.42907548 30.15520545 -12.98530098 26.43854074 -10.83984375 22.0703125 C-10.37584923 21.11751907 -10.37584923 21.11751907 -9.90248108 20.14547729 C-8.92137458 18.13502102 -7.92965421 16.13002345 -6.9375 14.125 C-6.26686762 12.75555605 -5.59693841 11.38576751 -4.92773438 10.015625 C-3.29327029 6.67305905 -1.64925075 3.33529955 0 0 Z " fill="#EAEAEA" transform="translate(1081,664)"/>
<path d="M0 0 C2.97 0 5.94 0 9 0 C7.35 4.29 5.7 8.58 4 13 C1.03 13 -1.94 13 -5 13 C-4.38621882 8.08975054 -2.27516294 4.33014883 0 0 Z " fill="#EBEBEB" transform="translate(1440,689)"/>
<path d="M0 0 C1.65 0 3.3 0 5 0 C3.4719611 5.09882455 1.28963144 9.65665659 -1.125 14.375 C-1.49753906 15.11105469 -1.87007812 15.84710937 -2.25390625 16.60546875 C-3.1656122 18.40550358 -4.08229932 20.20301402 -5 22 C-6.32 22 -7.64 22 -9 22 C-8.36111113 16.93959451 -6.13720723 12.71988466 -3.9375 8.1875 C-3.37192383 7.00510742 -3.37192383 7.00510742 -2.79492188 5.79882812 C-1.86829839 3.86347527 -0.93482533 1.93140451 0 0 Z " fill="#E9E9E9" transform="translate(1056,717)"/>
<path d="M0 0 C1.65 0 3.3 0 5 0 C3.5215088 3.29197047 2.0420924 6.58352434 0.5625 9.875 C-0.06881836 11.28072266 -0.06881836 11.28072266 -0.71289062 12.71484375 C-1.11572266 13.61074219 -1.51855469 14.50664063 -1.93359375 15.4296875 C-2.30540771 16.25710449 -2.67722168 17.08452148 -3.06030273 17.93701172 C-3.68240177 19.30275264 -4.32884346 20.65768693 -5 22 C-6.65 22 -8.3 22 -10 22 C-8.4719611 16.90117545 -6.28963144 12.34334341 -3.875 7.625 C-3.50246094 6.88894531 -3.12992188 6.15289063 -2.74609375 5.39453125 C-1.8343878 3.59449642 -0.91770068 1.79698598 0 0 Z " fill="#EAEAEA" transform="translate(1016,717)"/>
<path d="M0 0 C1.65 0 3.3 0 5 0 C3.4719611 5.09882455 1.28963144 9.65665659 -1.125 14.375 C-1.49753906 15.11105469 -1.87007812 15.84710937 -2.25390625 16.60546875 C-3.1656122 18.40550358 -4.08229932 20.20301402 -5 22 C-6.32 22 -7.64 22 -9 22 C-8.36111113 16.93959451 -6.13720723 12.71988466 -3.9375 8.1875 C-3.37192383 7.00510742 -3.37192383 7.00510742 -2.79492188 5.79882812 C-1.86829839 3.86347527 -0.93482533 1.93140451 0 0 Z " fill="#EFEFEF" transform="translate(975,717)"/>
<path d="M0 0 C2.97 0 5.94 0 9 0 C7.35 3.3 5.7 6.6 4 10 C1.36 10 -1.28 10 -4 10 C-2.8741386 6.46157845 -1.66905241 3.33810482 0 0 Z " fill="#EEEEEE" transform="translate(1412,747)"/>
<path d="M0 0 C2.64 0 5.28 0 8 0 C6.8741386 3.53842155 5.66905241 6.66189518 4 10 C1.03 10 -1.94 10 -5 10 C-3.35 6.7 -1.7 3.4 0 0 Z " fill="#E8E8E8" transform="translate(1426,719)"/>
<path d="M0 0 C0.88824463 0.15847412 1.77648926 0.31694824 2.69165039 0.48022461 C8.40825003 1.29187537 14.16994017 1.23537932 19.93359375 1.31640625 C21.16666763 1.33718735 22.39974152 1.35796844 23.67018127 1.37937927 C27.59256648 1.44454023 31.51501622 1.50360385 35.4375 1.5625 C38.10353101 1.60522252 40.76953683 1.64933232 43.43554688 1.69335938 C49.95696388 1.80018722 56.47844447 1.90201463 63 2 C63 2.33 63 2.66 63 3 C41.88 3 20.76 3 -1 3 C-0.67 2.01 -0.34 1.02 0 0 Z " fill="#101010" transform="translate(1511,709)"/>
<path d="M0 0 C17.82 0 35.64 0 54 0 C53.67 0.99 53.34 1.98 53 3 C52.34 2.67 51.68 2.34 51 2 C49.44329646 1.89995385 47.88240945 1.86167459 46.32250977 1.85473633 C45.35132706 1.84835648 44.38014435 1.84197662 43.37953186 1.83540344 C42.32745041 1.83429062 41.27536896 1.8331778 40.19140625 1.83203125 C39.11374496 1.82870285 38.03608368 1.82537445 36.92576599 1.82194519 C34.64346749 1.81687583 32.36116155 1.81453687 30.07885742 1.81469727 C26.58044264 1.81251121 23.0823433 1.79435659 19.58398438 1.77539062 C17.36979275 1.77245667 15.15559962 1.77047189 12.94140625 1.76953125 C11.89134903 1.76234573 10.84129181 1.75516022 9.75941467 1.74775696 C8.7850798 1.75083359 7.81074493 1.75391022 6.80688477 1.75708008 C5.52020653 1.75494255 5.52020653 1.75494255 4.20753479 1.75276184 C1.7108525 1.86152125 1.7108525 1.86152125 -1 4 C-0.67 2.68 -0.34 1.36 0 0 Z " fill="#161616" transform="translate(942,641)"/>
<path d="M0 0 C0.66 0.99 1.32 1.98 2 3 C4.71004503 3.510605 4.71004503 3.510605 7.8828125 3.51171875 C9.63271484 3.56489258 9.63271484 3.56489258 11.41796875 3.61914062 C13.25294922 3.65297852 13.25294922 3.65297852 15.125 3.6875 C16.97158203 3.73874023 16.97158203 3.73874023 18.85546875 3.79101562 C21.9035551 3.87371564 24.95134571 3.94279427 28 4 C27.67 4.66 27.34 5.32 27 6 C17.43 5.67 7.86 5.34 -2 5 C-1.34 3.35 -0.68 1.7 0 0 Z " fill="#DBDBDB" transform="translate(1467,724)"/>
<path d="M0 0 C0.66 0.33 1.32 0.66 2 1 C1.67 2.65 1.34 4.3 1 6 C-0.65 6.33 -2.3 6.66 -4 7 C-3.6875 4.625 -3.6875 4.625 -3 2 C-2.01 1.34 -1.02 0.68 0 0 Z " fill="#EFEFEF" transform="translate(970,732)"/>
<path d="M0 0 C1.5625 1.75 1.5625 1.75 3 4 C2.6875 6.25 2.6875 6.25 2 8 C0.68 7.34 -0.64 6.68 -2 6 C-1.34 4.02 -0.68 2.04 0 0 Z " fill="#DCDCDC" transform="translate(973,721)"/>
<path d="M0 0 C1.32 0 2.64 0 4 0 C3.67 1.32 3.34 2.64 3 4 C1.35 4.33 -0.3 4.66 -2 5 C-1.34 3.35 -0.68 1.7 0 0 Z " fill="#E3E3E3" transform="translate(1194,664)"/>
</svg>
